<svg xmlns="http://www.w3.org/2000/svg" xml:space="preserve" viewBox="0 0 1200 1200">

<path fill="#FEAFA9" d="M907.792 984.1c-2.6.93-5.154 2.017-7.805 2.763-13.045 3.673-26.115 7.255-39.874 10.974-1.62-.529-2.822-.967-3.42-1.825-6.053-8.694-14.617-11.92-24.859-11.86a706.792 706.792 0 0 1-27.183-.392c.247-.405.324-.578.76-.783 4.366-1.412 7.746-3.42 7.503-8.353-.246-4.972-4.077-6.584-8.007-7.646-2.857-.772-5.89-.893-8.852-1.552-.033-.578-.052-.908.4-1.302 11.948-.073 23.443.223 34.905-.26 3.926-.166 8.331-1.467 11.543-3.67 9.207-6.317 12.982-18.717 9.584-28.755-3.216-9.502-12.123-15.21-23.929-15.28-52.747-.312-105.495-.613-158.243-.91-1.661-.009-3.444-.28-4.951.225-1.568.526-2.868 1.848-4.285 2.822 1.338 1 2.57 2.22 4.047 2.927 1.143.546 2.593.447 3.93 1.074.423 3.83.822 7.222 1.15 10.976-.02.85.03 1.339.01 2.259.186 3.775.443 7.118.46 10.67-.427 1.029-.615 1.849-1.056 2.924-1.038 2.847-1.822 5.439-2.96 8.14-2.114 1.182-3.875 2.253-5.636 3.323.962.855 1.923 1.71 2.921 2.823.063.431.09.603-.356.754-8.03-.034-15.588-.087-23.145-.008-1.005.01-2.002.687-3.003 1.055.526.693 1.053 1.386 1.565 2.447 1.117 5.026.723 9.458-2.138 13.849.827 1.043 1.803 2.382 2.845 2.436 5.123.265 10.263.19 15.23.537-2.711 5.277-1.256 8.002 4.254 8.584.98.104 1.959.213 2.91.754-.078 3.954-.13 7.473-.18 10.992-13.481-.918-26.974-1.692-40.438-2.81-7.709-.64-15.372-1.839-23.826-2.831-2.803-1.887-5.003-3.578-6.831-5.603-3.999-4.43-8.518-7.237-14.76-6.197-.705-3.697-1.418-6.992-1.955-10.586 5.562-6.193 6.088-9.54 3.772-15-4.478-10.553-9.32-21.04-12.68-31.963-12.23-39.757-17.043-80.732-18.314-122.147-.91-29.675-.278-59.328 6.3-88.468 1.284-5.69 4.23-11.006 6.766-16.309 24.633 9.362 50.035 13.187 75.7 14.886 15.688 1.039 31.52.757 47.248.101 15.036-.627 30.078-2.044 45.014-3.931 29.285-3.7 57.573-11.313 84.617-23.297 3.572-1.583 6.036-4.026 6.478-8.147.6-5.592 1.854-11.176 1.842-16.761-.045-19.79-.19-39.59-.897-59.366-.836-23.432-5.122-46.4-11.09-69.03-8.283-31.417-20.423-61.136-40.003-87.372-2.776-3.72-6.59-6.666-10.19-10.164-2.637-3.123-5.008-6.054-7.574-9.262-4.794-5.058-9.394-9.839-14.084-14.948-4.073-3.497-7.76-7.19-12.131-9.677-3.886-2.212-8.532-3.09-13.223-4.726-3.484-.515-6.587-.86-10.145-1.269-8.607-.955-15.87 1.423-22.547 5.478.008-4.228.411-8.054-.104-11.752-.514-3.684-1.949-7.24-2.982-11.12-.015-.626-.028-.983.269-1.506 6.572-6.387 13.274-12.236 18.949-18.951 4.078-4.827 6.766-10.74 13.18-13.328 1.717-.692 3.12-2.454 4.36-3.976 3.645-4.472 2.43-11.102-2.4-14.212.606-5.131 1.22-9.85 1.835-14.568a42296.564 42296.564 0 0 1 37.844 16.996c1.262 1.038 1.785 1.947 2.56 2.502 12.105 8.657 24.241 17.269 36.542 26.157 12.382 12.658 24.591 25.048 36.93 37.753 4.759 6.131 9.387 11.949 14.144 18.069 2.035 3.01 4.075 5.633 5.826 8.438a5364.755 5364.755 0 0 1 28.076 45.478c2.333 3.778 4.592 7.205 6.852 10.631 1.816 4.212 3.597 8.44 5.456 12.633 5.08 11.46 10.712 22.709 15.16 34.408 5.673 14.917 10.435 30.181 15.512 45.322 1.572 4.685 2.89 9.455 4.664 14.899.172 14.162.088 27.604 5.183 41.868-3.64-2.56-5.881-4.53-8.453-5.864-6.024-3.127-11.975-6.682-18.383-8.714-8.633-2.738-14.133 3.129-11.786 11.852.727 2.7 1.784 5.437 3.272 7.787 7.915 12.495 16.015 24.871 23.846 37.477-.338.319-.47.449-.927.476-2.21-1.474-4.007-2.992-5.996-4.193-7.544-4.557-15.086-9.127-22.766-13.448-2.949-1.66-6.354-2.684-9.204.364-2.79 2.983-1.575 6.251-.046 9.288 1.193 2.37 2.549 4.712 4.17 6.804 9.285 11.976 18.672 23.873 28.017 35.802.921 1.176 1.795 2.389 2.69 3.584l-.988 1.014c-1.487-.87-2.945-1.793-4.466-2.598-8.521-4.507-16.986-9.13-25.632-13.384-2.616-1.286-5.722-1.94-8.654-2.141-5.651-.388-8.96 3.426-7.507 8.889.877 3.298 2.49 6.619 4.549 9.343 6.922 9.165 14.16 18.092 21.345 27.056 2.658 3.316 5.501 6.484 8.26 9.72-2.115.384-3.56-.232-5.045-.73-4.563-1.533-9.044-3.617-13.738-4.39-7.427-1.223-12.088 4.393-9.425 11.401 1.683 4.429 4.135 8.87 7.273 12.385 10.745 12.032 21.928 23.673 33.012 35.399.686.726 1.955.9 2.953 1.332l-1.187 1.091c-5.904-.817-11.786-1.998-17.718-2.363-8.435-.519-11.799 3.915-9.085 11.897 4.516 13.282 10.297 25.928 20.549 36.491-4.874 2.68-5.455 7.229-4.683 11.777 1.05 6.184 1.927 12.643 4.454 18.277 4.76 10.613 10.647 20.72 15.552 31.095-6.503.086-12.494.066-18.482.155-8.509.126-10.616 3.693-7.139 10.485-.748 2.58-2.216 5.939-1.731 6.25 3.507 2.248 7.41 3.881 11.695 5.955.814 10.977 1.802 23.04 2.552 35.119.25 4.05-.108 8.136-.188 12.206z"/><path fill="#223158" d="M283.186 885.882c-3.963-5.429-2.359-11.36-.7-16.788 7.265-23.763 14.296-47.632 22.642-71.024 10.023-28.097 21.03-55.856 32.14-83.548 5.271-13.138 11.771-25.782 18.096-39.167 1.153-1.583 2.072-2.57 2.674-3.723 6.047-11.575 12.016-23.19 18.062-34.765 2.589-4.957 5.306-9.846 8.24-14.963 2.345-3.618 4.388-7.054 6.487-10.455 19.757-31.997 41.49-62.47 69.448-87.957 21.007-19.152 44.157-34.4 73.842-37.718 4.671.123 8.85.182 13.377.391 14.555 2.343 26.748 8.676 37.56 18.448 3.7 4.036 7.24 7.8 10.893 11.888 8.07 14.122 16.028 27.921 24.023 42.02.4 1.018.763 1.737 1.145 2.82 1.41 2.74 2.801 5.115 3.753 7.55-3.889.46-7.42.513-10.773 1.315-19.288 4.616-38.112 10.705-54.491 22.195-9.868 6.922-19.413 14.535-28.047 22.924-9.471 9.202-18.86 18.884-26.252 29.74-11.276 16.555-21.067 34.15-30.995 51.586-7.843 13.775-17.539 26.645-22.104 42.438-1.049 1.433-1.905 2.67-2.411 4.038-9.277 25.096-19.5 49.897-27.495 75.397-9.143 29.159-16.358 58.926-24.254 88.47-1.223 4.578-3.303 7.563-8.06 9.09-4.514 1.45-8.699 3.922-13.029 5.945-7.327 1.322-14.653 2.644-22.757 3.74-1.759-.337-2.74-.52-3.724-.55-28.136-.858-49.985-12.782-64.98-36.833-.59-.947-1.532-1.674-2.31-2.504z"/><path fill="#0D162F" d="M452.56 738.954c4.211-15.658 13.907-28.528 21.75-42.303 9.928-17.435 19.72-35.03 30.995-51.587 7.393-10.855 16.78-20.537 26.252-29.739 8.634-8.389 18.179-16.002 28.047-22.924 16.379-11.49 35.203-17.579 54.491-22.195 3.352-.802 6.884-.854 11.17-1.346 4.805.644 8.772 1.381 13.043 2.298 2.1.742 3.896 1.305 5.935 2.118 8.427 4.027 16.611 7.805 25.034 11.823 6.692 4.494 13.145 8.746 19.861 13.206 9.496 10.478 18.729 20.749 27.998 31.251.037.231.403.531.403.531s.472-.026.448-.03c-.024-.003-.063-.032-.025.324 3.527 7.808 7.016 15.262 10.57 23.136.827 3.515 1.588 6.608 2.173 10.035-1.872 2.455-3.173 5.167-5.326 6.603-13.463 8.979-28.656 13.944-44.179 17.782-32.294 7.986-64.948 9.934-97.984 5.296-9.425-1.324-17.842 1.09-23.61 9.48-2.18 5.488-5.127 10.804-6.411 16.494-6.578 29.14-7.21 58.793-6.3 88.468 1.271 41.415 6.085 82.39 18.315 122.147 3.36 10.923 8.201 21.41 12.679 31.964 2.316 5.46 1.79 8.806-4.072 15.096-1.913 1.262-3.35 2.127-4.803 2.606-1.25-1.082-3.09-2.677-3.62-2.322-2.99 2.01-7.605 2.685-7.768 7.906-2.22 1.08-4.037 2.26-6.03 2.87-14.58 4.453-29.448 6.088-44.637 4.194-3.867-1.471-7.832-2.741-11.545-4.533-1.153-.556-1.624-2.527-2.484-4.59-.478-1.832-.84-2.942-1.287-4.017-17.257-41.562-28.693-84.756-35.13-129.21-2.761-19.068-3.885-38.376-5.625-57.587-1.614-17.807-.907-35.56 1.673-53.245z"/><path fill="#165737" d="M921.598 913.872c-5.418-10.317-11.305-20.424-16.065-31.037-2.527-5.634-3.403-12.093-4.454-18.277-.772-4.548-.19-9.098 4.683-11.777-10.252-10.563-16.033-23.21-20.549-36.49-2.714-7.983.65-12.417 9.085-11.898 5.932.365 11.814 1.546 17.718 2.363l1.187-1.09c-.998-.432-2.267-.607-2.953-1.333-11.084-11.726-22.267-23.367-33.012-35.399-3.138-3.514-5.59-7.956-7.273-12.385-2.663-7.008 1.998-12.624 9.425-11.401 4.694.773 9.175 2.857 13.738 4.39 1.485.498 2.93 1.114 5.045.73-2.759-3.236-5.602-6.404-8.26-9.72-7.184-8.964-14.423-17.891-21.345-27.056-2.059-2.724-3.672-6.045-4.549-9.343-1.453-5.463 1.856-9.277 7.507-8.889 2.932.201 6.038.855 8.654 2.141 8.646 4.253 17.11 8.877 25.632 13.384 1.52.805 2.979 1.729 4.466 2.598l.988-1.014c-.895-1.195-1.769-2.408-2.69-3.584-9.345-11.929-18.732-23.826-28.017-35.802-1.621-2.092-2.977-4.434-4.17-6.804-1.529-3.037-2.744-6.305.046-9.288 2.85-3.048 6.255-2.023 9.204-.364 7.68 4.32 15.222 8.89 22.766 13.448 1.989 1.201 3.786 2.719 6.13 4.442.802.419 1.147.486 1.52.808.23.25.43.243.629.237-.247-.14-.494-.28-.594-.695-.088-.603-.322-.933-.557-1.263-8.036-12.418-16.136-24.794-24.05-37.289-1.49-2.35-2.546-5.086-3.273-7.787-2.347-8.723 3.153-14.59 11.786-11.852 6.408 2.032 12.359 5.587 18.383 8.714 2.572 1.334 4.813 3.304 8.453 5.864-5.095-14.264-5.011-27.706-4.92-41.607 1.924-8.431 3.588-16.386 7.55-23.885 3.575-6.766 7.764-12.844 12.878-18.39.967-1.05 2.325-1.738 4.018-2.959 8.879-5.62 17.337-10.64 27.59-10.792 1.351 12.275 2.83 24.093 3.988 35.942 1.789 18.28 3.739 36.558 4.923 54.882 1.424 22.013 2.671 44.067 2.976 66.117.333 24.11-.437 48.237-.848 72.355-.184 10.793-.607 21.583-1.033 32.37a437.025 437.025 0 0 1-1.094 18.368c-1.227 15.009-2.502 30.014-3.887 45.009-.775 8.394-1.805 16.765-2.723 25.145-1.098 10.031-2.2 20.061-3.756 30.177-17.27.052-34.083.02-50.896-.014z"/><path fill="#518C5A" d="M788.857 361.388c-12.129-8.621-24.265-17.233-36.37-25.89-.775-.555-1.298-1.464-2.232-2.39 1.405-14.39 2.95-28.618 4.854-42.798 1.367-10.174 3.33-20.267 4.823-30.426 1.804-12.283 2.894-24.693 5.221-36.871 2.134-11.166 4.782-22.345 8.5-33.069 5.155-14.873 10.65-29.755 17.6-43.845 7.877-15.97 18.52-30.189 31.942-42.329 9.174-8.3 19.32-14.344 30.59-19.276 20.905-9.147 39.749-6.153 57.636 7.315 6.311 4.75 10.652 11.015 14.484 17.588 4.866 8.345 9.598 16.868 13.267 25.776 2.66 6.458 3.516 13.661 5.144 20.54 1.648 6.963 3.855 13.86 4.752 20.92 1.703 13.397 2.755 26.88 3.86 40.347.595 7.257 1.184 14.564.98 21.826-.305 10.789-1.13 21.574-2.092 32.329-.599 6.695-1.856 13.332-2.898 20.707-1.247 1.304-2.359 2.071-3.59 2.46-17.734 5.593-32.376 16.193-45.03 29.314-19.934 20.668-35.768 44.355-48.67 69.992-3.94 7.828-7.773 15.71-11.654 23.566-4.628-5.817-9.256-11.635-13.685-17.927 1.29-2.271 2.778-3.94 3.403-5.887 4.386-13.644 11.482-25.678 20.869-36.461 10.893-12.514 18.872-26.764 24.099-42.465 8.105-24.345 11.555-49.587 13.236-75.056.909-13.766 1.032-27.6 1.03-41.404 0-13.89-.1-27.817-1.125-41.656-.566-7.644-2.46-15.365-4.942-22.647-3.024-8.876-10.49-14.159-19.339-15.289-7.973-1.018-13.976 4.053-19.13 10.359-7.945 9.722-8.88 21.108-9.354 32.73-.495 12.11-.641 24.234-1.076 36.348-.154 4.293-.196 8.693-1.168 12.838-3.994 17.04-7.477 34.27-12.743 50.926-7.082 22.404-16.037 44.21-23.386 66.538-3.547 10.778-5.261 22.16-7.806 33.267z"/><path fill="#155736" d="M441.955 62.887c10.874-1.016 21.182 1.336 31.044 5.646 19.808 8.658 34.129 23.284 45.028 41.674 6.308 10.643 10.88 21.927 13.283 34.018 1.697 8.54 3.606 17.163 3.97 25.81.363 8.639-1.138 17.35-1.66 26.04-.07 1.18.801 2.417.909 2.716 9.347-6.69 18.226-13.68 27.754-19.634 6.068-3.791 13.14-6.913 20.524-3.493 2.812 1.302 5.657 3.92 7.037 6.665 4.108 8.18.392 16.147-2.422 23.695-3.43 9.2-7.64 18.142-12.02 26.944-4.82 9.684-10.23 19.074-15.322 28.624-.266.5.025 1.296.075 2.335 9.536-8.042 18.83-15.88 28.652-23.447-.26 4.906-1.415 9.512-1.763 14.179-.734 9.846-4.57 18.049-11.29 25.251-5.41 5.799-10.293 12.091-15.347 18.217-12.063 14.624-19.127 31.604-23.589 50.16-2.683 2.218-5.373 3.957-7.63 6.145-14.664 14.216-29.233 28.53-43.935 42.428.087-1.341.118-2.363.487-3.243 3.773-9.003 7.804-17.905 11.349-26.996 2.813-7.215 5.088-14.641 7.528-21.998 1.13-3.406.294-6.375-2.93-8.101-3.134-1.677-5.53.198-7.211 2.603-2.355 3.367-4.567 6.872-6.458 10.516-3.486 6.717-6.695 13.578-10.022 19.924-.328-4.571-.778-8.681-.957-12.803-.716-16.541-1.415-33.083-1.994-49.63-.736-21.028-1.35-42.06-1.672-63.139 3.72-3.14 7.326-6.018 10.429-9.363 8.83-9.52 13.427-20.887 13.025-33.886-.088-2.873-1.66-6.9-3.858-8.223-3.18-1.916-7.25-.465-9.717 2.797-3.882 5.133-7.521 10.451-11.265 15.256-.669-11.474-.942-22.555-2.133-33.537-.883-8.146-1.923-16.547-4.741-24.149-4.432-11.953-12.17-21.91-23.136-29.41.003-20.505-.01-40.548-.022-60.591z"/><path fill="#26784F" d="m972.951 913.8 3.299-30.09c.918-8.381 1.948-16.752 2.723-25.146 1.385-14.995 2.66-30 3.887-45.009.5-6.112.853-12.24 1.094-18.368.426-10.787.849-21.577 1.033-32.37.41-24.118 1.181-48.245.848-72.355-.305-22.05-1.552-44.104-2.976-66.117-1.184-18.324-3.134-36.602-4.923-54.882-1.159-11.849-2.637-23.667-3.53-35.969 7.017.792 14.043.981 20.082 3.52 17.077 7.178 26.208 21.433 31.624 38.516.618 1.948 1.88 3.692 2.843 5.53 3.377 17.255 1.514 34.01-5.123 51.241 5.128-2.473 9.786-4.432 14.158-6.898 5.812-3.28 11.9-4.88 18.506-4.007 4.22.558 7.69 8.4 5.843 12.826-4.548 10.895-11.812 20.007-19.14 29.071-3.137 3.88-6.356 7.694-8.776 12.421 4.845-2.57 9.571-5.4 14.565-7.637 5.385-2.413 10.949-4.49 16.569-6.294 4.034-1.296 7.714 3.11 6.988 7.294-.792 4.56-3.708 7.766-6.326 11.062-4.573 5.758-9.554 11.2-14.502 16.65-5.204 5.731-10.57 11.317-15.309 18.019 4.397-2.033 8.679-4.382 13.216-6.025 6.943-2.514 13.952-5.04 21.139-6.625 6.13-1.352 10.513 4.098 9.258 10.224-1.455 7.096-6.881 11.495-11.182 16.577-4.443 5.251-9.454 10.024-14.256 14.968-3.252 3.348-6.573 6.63-10.298 10.382-.59.776-.745 1.11-.9 1.445l1.688-.673c5.941-.927 11.074-4.995 17.697-3.691 5.494 1.081 10.095 6.203 7.81 11.212-2.374 5.208-5.482 10.427-9.447 14.494-8.636 8.857-18.002 17.005-27.111 25.398-2.636 2.428-5.417 4.7-8.732 7.561 5.268-.363 10.164-1.132 15.005-.87 2.84.154 5.893 1.498 8.314 3.112 3.575 2.383 3.83 6.106 1.956 9.804-3.148 6.21-6.05 12.596-9.795 18.434-3.87 6.034-8.618 11.504-13.133 17.418 5.363 3.455 3.929 9.306 2.482 14.267-1.993 6.835-5.074 13.406-8.203 19.84-3.176 6.528-6.968 12.757-10.52 19.1-.231.412-.722.68-1.624 1.521-1.44.802-2.35 1.353-3.257 1.35-11.188-.03-22.376-.14-33.564-.23m60.03-197.797-1.713 1.443.935.703c.514-.777 1.029-1.554.778-2.146z"/><path fill="#DE2F36" d="M972.494 913.886c11.645.005 22.833.116 34.021.146.908.002 1.817-.549 3.102-1.048 8.445.192 16.514.577 24.581.988 6.055.309 7.221 1.611 7.378 8.017.013.551.281 1.129.542 1.638 3.3 6.448.697 10.917-6.64 11.378-.638.04-1.275.11-1.352.118-.262 4.601-.515 8.928-.75 13.256-.144 2.637-.215 5.278-.397 7.912-.972 14.094-1.976 28.186-2.951 42.28-.363 5.245-.604 10.5-1.028 15.74-.948 11.745-1.963 23.483-2.977 35.222-.604 6.994-1.734 13.984-1.735 20.975 0 5.489-3.605 7.641-7.27 9.429-11.174 5.45-23.057 8.813-35.532 8.967-10.752.132-21.568-.006-32.254-1.058-10.016-.986-19.496-4.431-27.955-10.165-5.304-3.595-4.573-9.487-5.235-14.695-1.524-11.982-2.796-23.997-4.01-36.015-.825-8.164-1.315-16.362-2.075-24.534-.544-5.852-1.286-11.685-2.052-17.932-.033-4.475.326-8.562.075-12.611-.75-12.079-1.738-24.142-2.552-35.119-4.285-2.074-8.188-3.707-11.695-5.955-.485-.311.983-3.67 1.731-6.25-3.477-6.792-1.37-10.359 7.139-10.485 5.988-.089 11.979-.07 18.482-.155 17.326-.025 34.14.008 51.409-.044z"/><path fill="#5E9752" d="M384.065 622.102c-2.659 4.92-5.376 9.808-7.965 14.765-6.046 11.575-12.015 23.19-18.062 34.765-.602 1.153-1.521 2.14-2.606 3.363-.807-8.3-6.114-14.528-10.57-20.993-5.49-7.967-13.617-13.078-21.537-18.44-10.166-6.88-20.404-13.813-29.648-21.834-4.666-4.049-7.21-10.543-10.595-16.718-1.512-6.954-3.143-13.122-4.86-19.635-3.664-6.09-7.242-11.837-10.95-17.904-5.593-6.11-10.86-12.103-16.565-17.642-8.935-8.673-18.72-16.53-27.132-25.666-10.153-11.024-7.355-23.702 6.526-29.194 20.86-8.254 42.003-6.391 61.92 2.949 11.591 5.436 21.956 13.486 33.025 20.644 9.158 9.185 18.117 17.538 31.607 19.972 14.587 2.633 28.4 8.149 40.543 17.114.446.33 1.215.224 1.82.616.326.434.666.574 1.01 1.006.336.43.668.568 1.051 1.019.517.748.983 1.183 1.346 2.016-3.634 12.365-7.431 24.262-10.616 36.32-2.924 11.068-5.187 22.311-7.742 33.477z"/><path fill="#9FC0A5" d="M840.103 417.476c3.752-8.158 7.585-16.04 11.525-23.868 12.902-25.637 28.736-49.324 48.67-69.992 12.654-13.12 27.296-23.72 45.03-29.315 1.231-.388 2.343-1.155 3.656-2.086 10.396-2.576 20.627-3.675 31.006-.868 8.974 2.427 15.585 7.97 20.983 15.184 7.544 10.083 10.109 21.786 8.463 33.88-.948 6.967-3.77 13.728-7.89 20.031-6.56 10.036-13.497 19.65-22.815 27.155-8.913 7.178-18.274 13.829-27.703 20.328-13.004 8.964-26.301 17.502-39.375 26.367-3.66 2.483-6.977 5.473-10.992 8.51-1.306.547-2.328.584-2.798 1.112-8.018 9.007-15.967 18.074-23.931 27.128-9.327-15.047-18.629-30.11-28.003-45.127-1.75-2.805-3.791-5.429-5.826-8.439z"/><path fill="#386B66" d="M1028.978 580.677c-.986-1.455-2.248-3.2-2.866-5.147-5.416-17.083-14.547-31.338-31.624-38.516-6.039-2.539-13.065-2.728-20.1-3.964-10.693.622-19.151 5.643-27.86 10.947-.663-14.409-1.745-28.904-1.045-43.312.519-10.687 2.913-21.361 5.28-31.858 2.171-9.625 4.439-19.447 8.448-28.381 5.089-11.342 11.797-21.835 20.45-31.214 7.494-8.124 16.013-13.861 26.152-17.557 18.947-6.905 38.316 4.867 45.285 20.268 5.138 11.353 7.492 23.188 8.01 35.647.793 19.112-3.359 37.6-6.429 56.188-1.827 11.059-5.337 21.861-8.427 32.682-1.882 6.592-4.378 13.01-6.646 19.49-2.843 8.124-5.735 16.23-8.628 24.727z"/><path fill="#4F7E5E" d="M537.012 348.016c4.268-18.285 11.332-35.265 23.395-49.889 5.054-6.126 9.938-12.418 15.347-18.217 6.72-7.202 10.556-15.405 11.29-25.251.348-4.667 1.503-9.273 2.117-14.226 4.185-8.873 7.828-17.907 13.13-25.83 4.316-6.451 9.924-12.526 16.185-17.085 12.717-9.261 26.199-17.486 39.486-25.948 11.73-7.472 20.705-17.134 24.938-30.59 1.16-3.689 1.538-7.635 2.136-11.485.56-3.607 5.73-5.315 9.092-3.11 8.752 5.74 11.766 14.762 13.806 24.226 1.971 9.151 2.203 18.306-.843 27.4-3.295 9.836-6.155 19.818-9.453 29.653-2.915 8.693-2.4 16.831 2.13 24.94 2.078 3.72 3.807 7.946 4.38 12.122.97 7.057 1.783 14.36.97 21.363-.609 5.243-3.878 10.177-6.378 15.64-1.25.128-2.246.07-2.898-.433-6.158-4.756-12.661-7.6-20.77-5.522-2.122.543-4.864-.438-7.076-1.33-5.2-2.096-10.489-3.685-15.902-1.573-6.112 2.385-12.383 4.732-17.908 8.18-11.75 7.333-18.917 18.237-22.54 31.739-5.68 1.501-11.014 2.78-16.202 4.495-21.171 7.001-40.207 18.105-58.432 30.731z"/><path fill="#FDAEA8" d="M452.206 739.089c-2.225 17.55-2.932 35.303-1.318 53.11 1.74 19.21 2.864 38.52 5.625 57.587 6.437 44.454 17.873 87.648 35.13 129.21.447 1.075.809 2.185 1.192 3.646-10.936-1.97-21.928-4.011-32.756-6.708-21.596-5.378-42.833-11.93-62.827-21.896-4.994-2.489-9.693-5.634-14.302-8.807-2.581-1.777-3.781-4.022-3.478-7.913.368-4.727-1.553-9.632-2.5-14.874 4.315-2.438 8.5-4.91 13.014-6.36 4.757-1.527 6.837-4.512 8.06-9.09 7.896-29.544 15.11-59.311 24.254-88.47 7.995-25.5 18.218-50.301 27.495-75.397.506-1.367 1.362-2.605 2.41-4.038z"/><path fill="#E2E9F4" d="M661.952 1005.296c.025-4.003.077-7.522.609-11.558 29.955-.344 59.428-.149 88.902-.008 27.148.13 54.296.173 81.444.311 10.699.055 18.25 5.949 21.304 16.237 2.696 9.084 2.266 18.14-.35 27.081-3.127 10.681-9 14.938-20.08 14.907-53.463-.15-106.926-.312-160.39-.535-4.47-.019-8.937-.522-13.407-.8.498-4.822.995-9.645 2.173-14.528 7.762-.17 14.844-.234 21.924-.397 12.782-.295 25.563-.712 38.346-.964 20.107-.396 40.215-.7 60.323-1.036 1.716-.028 3.434-.003 5.152-.003l-.01-.89H662.136c-.053-9.111-.106-18.222-.185-27.817M731.5 1016l115.415-1.131c-18.136-2.86-180.513-2.68-183.688 1.131H731.5z"/><path fill="#233259" d="M318 976.735c1.325 2.531 4.15 5.38 3.695 7.535-1.449 6.859-.713 14.313-6.278 20.277-3.63 3.89-5.475 9.404-8.356 14.045-3.002 4.835-5.853 9.873-9.572 14.12-3.525 4.025-7.193 5.176-12.086 2.415-5.225-2.949-10.623-5.6-16.01-8.25-6.095-2.997-12.433-5.54-18.355-8.838-9.143-5.094-17.902-10.88-27.05-15.964-8.074-4.486-16.475-8.381-24.702-12.596-7.518-3.852-15.4-7.199-22.28-11.98-2.576-1.79-3.73-6.965-3.864-10.657-.306-8.345 7.347-18.857 15.768-21.009 6.017-1.538 12.546-1.53 18.836-1.439 9.185.134 18.382.72 27.533 1.566 7.837.724 15.484 2.488 22.192 7.011 2.003 1.35 4.045 2.643 6.458 4.405 3.018 4.202 5.272 8.308 8.35 11.654 7.862 8.543 17.297 12.23 29.15 9.22 5.31-1.348 11.035-1.06 16.572-1.515m-54.529 36.158c8.933 4.795 17.814 9.69 26.853 14.275 1.377.698 3.486-.048 5.257-.127-.963-1.22-1.67-2.919-2.927-3.591-20.048-10.73-40.161-21.338-60.27-31.955-16.886-8.915-33.763-17.85-50.726-26.619-1.171-.605-3.017.092-4.549.184.824 1.214 1.373 2.91 2.517 3.56 5.601 3.179 11.366 6.07 17.064 9.08 22.032 11.637 44.06 23.28 66.781 35.193zm312.594-25.119c6.248-1.443 10.767 1.364 14.766 5.794 1.828 2.025 4.028 3.716 6.4 5.61 5.216 11.836 10.236 23.564 14.898 35.433 2.006 5.109 2.086 8.333-4.244 11.859-14.095 7.85-28.467 15.2-42.665 22.867-12.586 6.797-25.002 13.913-37.661 20.569-7.606 4-15.788 6.945-23.219 11.22-4.328 2.491-8.144 3.426-12.693 1.65-6.434-2.514-12.636-12.936-12.602-20.27.027-5.886 3.126-10.226 5.39-15.264 3.028-6.737 8.054-11.286 12.342-16.704 4.486-5.668 8.639-11.605 13.206-17.205 5.52-6.766 13.244-9.936 22.18-12.375 4.922-.27 9.128.03 13.153-.688 11.66-2.08 20.575-7.618 24.402-19.765 1.407-4.467 4.19-8.5 6.347-12.73m-47.944 84.965c-12.19 6.706-24.411 13.36-36.526 20.2-1.192.673-1.735 2.493-2.58 3.78 1.59-.012 3.467.529 4.723-.125 10.582-5.502 21.039-11.243 31.554-16.874 26.175-14.017 52.379-27.98 78.49-42.114 1.38-.747 2.004-2.888 2.98-4.38-1.67.124-3.612-.268-4.972.448-24.378 12.827-48.686 25.787-73.669 39.065z"/><path fill="#49A6B7" d="M91.07 559.972c-.023-52.477-.06-104.955-.067-157.432-.012-76.3-.003-152.602-.003-228.903v-6.654c83.861 0 167.416 0 251.826.087 1.268 2.727 1.682 5.368 1.633 8.017-45.691.001-90.92-.008-136.147.002-1.486 0-2.972.212-4.74.216-.67-.214-1.058-.32-1.57-.815-1.82-.74-3.525-1.439-5.209-1.388-21.628.656-43.253 1.42-65.081 2.046-.204-.109-.654-.208-.75-.603-5.065-.661-10.033-.95-15.005-1.118-.242-.009-.52 1.056-1.26 1.635-2.81.015-5.142.016-7.474.016-8.138.001-8.138.001-8.138 8.054 0 123.437 0 246.874-.005 370.311 0 2.164-.072 4.328-.55 6.516-2.779.02-5.12.017-7.46.013z"/><path fill="#2F3436" d="M344.922 175.08c-.414-2.642-.828-5.283-1.635-8.044.22-2.902.821-5.686 1.45-8.464 3.525-15.562 11.923-27.613 25.74-35.782.688-.407 1.209-1.098 2.327-1.517 5.398-1.665 10.157-3.962 15.177-5.189 18.988-4.64 37.159-2.809 53.98 7.857 10.982 7.037 18.72 16.994 23.152 28.947 2.818 7.602 3.858 16.003 4.741 24.149 1.191 10.982 1.464 22.063 1.85 33.803-.41 1.505-.693 2.32-.643 3.114.628 10.03 1.304 20.059 1.967 30.088.667 21.03 1.28 42.062 2.017 63.09.58 16.547 1.278 33.089 1.994 49.63.179 4.122.63 8.232.957 13.269.345 12.291.688 23.661.926 35.351-4.329 5.856-8.552 11.393-12.813 16.446-.099-4.578-.16-8.672-.2-13.05 0-.472-.018-.661-.028-1.202-.003-1.057-.015-1.76.02-2.925-.283-11.177-.614-21.895-.933-33.077-.314-5.5-.64-10.535-.963-16.04-.01-8.807-.023-17.147-.026-25.957-.654-16.84-1.319-33.209-1.984-50.044-.325-6.42-.838-12.368-.943-18.324-.419-23.594-1.101-47.193-.889-70.782.113-12.455-1.176-24.634-5.548-36.085-2.423-6.347-7.65-11.623-11.757-17.689-1.577-1.862-2.777-3.759-4.479-4.922-17.457-11.939-36.196-13.875-55.798-6.318-5.452 2.102-11.214 4.415-13.996 10.746-9.769 8.137-13.58 18.79-14.931 30.97-.481 2.764-.598 5.31-.948 8.173.008 7.794.249 15.273.087 22.857-2.992.315-5.58.523-8.15.27.104-8.09.191-15.72.279-23.35z"/><path fill="#E08B5A" d="M318.205 976.47c-5.74.72-11.465.432-16.775 1.78-11.854 3.01-21.29-.677-29.15-9.22-3.08-3.346-5.333-7.452-7.99-11.55.769-4.458 1.323-8.642 2.413-12.682 1.888-7.005 4.218-13.889 6.163-20.879 2.928-10.525 5.685-21.098 8.513-31.652.503-1.88 1-3.76 1.653-6.013.932.458 1.874 1.185 2.464 2.132 14.995 24.052 36.844 35.975 64.98 36.833.985.03 1.965.213 3.28.58-3.471 6.204-7.006 12.349-11.138 18.063-7.89 10.911-16.12 21.577-24.413 32.609z"/><path fill="#DC9F2F" d="M659.58 1050.956c4.874.253 9.342.756 13.812.775 53.463.223 106.926.386 160.39.535 11.078.031 16.952-4.226 20.078-14.907 2.617-8.942 3.047-17.997.35-27.08-3.053-10.29-10.604-16.183-21.303-16.238-27.148-.138-54.296-.181-81.444-.311-29.474-.14-58.947-.336-88.874-.426-1.433-.025-2.412-.134-3.392-.238-5.51-.582-6.965-3.307-3.804-8.648 3.45-.417 6.282-.511 9.114-.51 38.83.01 77.66.033 116.941.08 3.159.026 5.868.025 8.833.273 2.073.084 3.888-.081 6.06-.234 2.466-.115 4.574-.243 6.92-.279.566.129.895.18 1.221.244 9.117.062 18.235.213 27.352.16 10.242-.06 18.806 3.166 24.86 11.86.597.858 1.799 1.296 3.074 1.999.995 2.915 1.415 5.832 2.313 8.594 4.236 13.025 2.058 25.79-2.613 37.973-2.53 6.596-6.331 13.276-13.82 16.114-1.8.682-3.778 1.261-5.675 1.263-59.983.066-119.967.05-179.95.061-3.512.001-6.54-.489-7.049-4.879-.552-4.771 2.153-6.102 6.607-6.181z"/><path fill="#2B3340" d="M612.06 312.769c3.21-13.481 10.377-24.385 22.126-31.718 5.525-3.448 11.796-5.795 17.908-8.18 5.413-2.112 10.701-.523 15.902 1.573 2.212.892 4.954 1.873 7.076 1.33 8.109-2.077 14.612.766 20.77 5.522.652.503 1.647.56 2.777.774 1.299 1.748 1.972 3.875 3.366 5.292 7.628 7.753 8.973 17.683 10.063 28.197a344.384 344.384 0 0 1-2.046 15.335c-3.998 3.653-8.02 2.712-11.308.461-5.862-4.012-11.354-8.583-16.848-13.105-1.954-1.608-3.464-3.754-4.977-5.433-3.182 5.856-6.06 11.444-9.27 16.836-.707 1.188-3.018 2.64-3.827 2.275-1.328-.6-2.558-2.467-2.9-4.006-1.003-4.527-1.285-9.221-2.404-13.712-.447-1.791-2.078-4.25-3.627-4.654-14.504-3.784-29.968 2.97-37.611 16.044-.9 1.54-1.824 3.065-2.736 4.597l-1.206.07c-.624-3.072-1.248-6.142-1.726-9.649.264-2.907.38-5.378.498-7.85z"/><path fill="#CAC7CA" d="M278.308 577.72c1.63 6.168 3.262 12.336 4.768 18.904-70.81.4-141.495.4-213.057.4 0-5.896 0-11.47.483-17.527 67.399-.488 134.315-.48 201.23-.55 2.192-.003 4.384-.8 6.576-1.226z"/><path fill="#DEE2E1" d="M278.222 577.375c-2.106.772-4.298 1.569-6.49 1.571-66.915.07-133.831.063-201.209.087 6.329-6.253 13.12-12.526 20.228-18.93 2.66-.127 5-.124 8.25-.114 32.257-.008 63.606-.022 95.428-.019 11.518.007 22.564-.004 34.075 0 13.277-.05 26.088-.113 38.898-.178 3.578 5.746 7.156 11.492 10.82 17.583z"/><path fill="#26774F" d="M441.977 123.478c-16.837-10.203-35.008-12.034-53.996-7.394-5.02 1.227-9.779 3.524-14.85 5.069.551-3.476.627-7.064 2.176-9.827 3.465-6.176 7.085-12.445 11.703-17.753 6.513-7.487 13.121-15.487 21.31-20.74 7.045-4.52 15.214-8.764 24.4-8.89 2.867-.039 5.726-.74 8.911-1.097.336 20.084.35 40.127.346 60.633z"/><path fill="#E08B5A" d="M576.073 987.371c-2.163 4.634-4.947 8.667-6.354 13.134-3.827 12.147-12.743 17.685-24.402 19.765-4.025.717-8.231.418-12.805.498a929.209 929.209 0 0 1-25.56-28.277c15.196 1.539 30.063-.096 44.645-4.55 1.992-.608 3.81-1.789 6.4-2.77 4.14-1.81 7.586-3.553 11.031-5.297 1.438-.865 2.876-1.73 4.614-2.692 1.012 3.197 1.725 6.492 2.43 10.19z"/><path fill="#518C5A" d="M874.005 471.393c7.891-9.405 15.84-18.472 23.858-27.48.47-.527 1.492-.564 2.606-.817-5.862 11.497-12.09 22.97-18.255 34.477-.6 1.12-.802 2.452-1.273 4.069-2.344-3.044-4.603-6.471-6.936-10.249z"/><path fill="#D1CFD6" d="M662.116 1033.472c41.939-.36 83.857-.36 125.775-.36l.01.89c-1.717 0-3.435-.024-5.151.004-20.108.336-40.216.64-60.323 1.036-12.783.252-25.564.67-38.346.964a676.65 676.65 0 0 1-21.612.163c-.371-.895-.373-1.617-.353-2.697z"/><path fill="#49805A" d="M789.03 361.655c2.372-11.375 4.086-22.756 7.633-33.534 7.349-22.327 16.304-44.134 23.386-66.538 5.266-16.656 8.749-33.886 12.743-50.926.972-4.145 1.014-8.545 1.168-12.838.435-12.114.58-24.238 1.076-36.349.475-11.62 1.409-23.007 9.355-32.73 5.153-6.305 11.156-11.376 19.13-10.358 8.847 1.13 16.314 6.413 19.338 15.289 2.482 7.282 4.376 15.003 4.942 22.647 1.024 13.839 1.124 27.766 1.126 41.656 0 13.804-.122 27.638-1.03 41.404-1.682 25.469-5.132 50.71-13.237 75.056-5.227 15.701-13.206 29.951-24.1 42.465-9.386 10.783-16.482 22.817-20.868 36.461-.625 1.947-2.114 3.616-3.533 5.573-12.539-12.23-24.748-24.62-37.13-37.278z"/><path fill="#DD8B83" d="M559.96 702.898c5.414-8.575 13.831-10.989 23.256-9.665 33.036 4.638 65.69 2.69 97.984-5.296 15.523-3.838 30.716-8.803 44.18-17.782 2.152-1.436 3.453-4.148 5.586-6.745 3.458-4.834 6.479-9.193 9.83-13.49 6.91 3.2 13.251 7.057 20.118 9.325 13.524 4.466 24.397 1.15 30.003-9.486 11.672-22.145 18.475-45.285 11.082-70.925-.693-5.202-1.38-10.012-2.043-15.233-.617-3.486-1.261-6.561-1.88-10.074-1.897-8.849-3.818-17.26-5.784-26.054-.342-2.109-.641-3.836-.987-5.979-2.436-8.46-4.825-16.506-7.29-24.911-1.367-3.92-2.44-7.577-3.99-11.02-4.778-10.616-9.739-21.15-14.686-32.092-2.17-4.738-4.281-9.099-6.393-13.46 3.334 3.304 7.148 6.25 9.924 9.97 19.58 26.236 31.72 55.955 40.004 87.371 5.967 22.63 10.253 45.599 11.09 69.031.705 19.775.851 39.576.896 59.366.012 5.585-1.243 11.169-1.842 16.761-.442 4.121-2.906 6.564-6.478 8.147-27.044 11.984-55.332 19.598-84.617 23.297-14.936 1.887-29.978 3.304-45.014 3.931-15.728.656-31.56.938-47.249-.1-25.664-1.7-51.066-5.525-75.7-14.887z"/><path fill="#E03232" d="M791.352 521.91c.299 1.727.598 3.454.487 5.608-1.074.445-1.74.443-2.404.483-7.363.45-13.64 6.972-13.421 13.939.224 7.182 6.553 13.1 14.194 13.017 2.618-.028 5.23-.645 7.844-.992.643 3.075 1.287 6.15 1.578 9.48-5.742-2.716-11.199-3.872-17.172-.413-6.118-2.866-11.892-5.674-17.53-8.84a37.166 37.166 0 0 1 2.39-3.013c4.614-5.292 5.106-12.413 1.235-17.934-3.415-4.87-11.017-6.752-17.117-4.237-6.939 2.86-9.237 8.713-7.769 18.889-2.17-.491-3.982-1.005-5.756-1.992.053-1.303.021-2.136.095-2.96.795-8.894-5.005-13.812-10.413-14.758-6.87-1.202-14.27 1.014-16.942 9.351-.287.897-1.041 1.645-1.887 2.325-5.456-6.042-10.604-11.945-15.367-17.856 6.68-1.096 11.261-5.975 11.6-11.95.41-7.252-2.73-11.997-8.989-14.234-6.663-2.382-15.098-.376-19.293 10.006a969.771 969.771 0 0 1-18.998-15.828c.17.008.508.024.87.002 1.758-.529 3.174-.985 4.545-1.551 6.756-2.792 10.122-8.94 8.786-15.982-1.152-6.074-6.807-10.33-13.978-10.898-.022-2.136.017-3.848.471-5.56 2.316-.351 4.448-.264 6.077-1.127 6.273-3.32 8.825-9.344 7.048-15.78-2.003-7.256-6.421-10.215-15.12-9.978-.202.013-.594.11-.805-.148-2.703-2.507-5.196-4.758-7.48-7.276 1.086-.423 1.965-.578 3.056-.442 9.152 5.192 16.899 1.695 21.033-9.21 1.69-1.312 3.121-2.405 4.616-3.068.615 8.217 5.44 13.747 12.727 14.943 5.173.849 12.638-4.073 14.804-9.741 1.989-5.203-.357-9.666-2.389-14.187 3.103.346 6.206.69 9.616 1.56-3.767 11.553-.584 18.95 10.016 21.668 6.803 1.744 11.498-2.365 15.502-7.29 4.6 4.78 9.2 9.56 13.623 14.693-7.705 4.854-9.643 12.067-5.886 19.235 2.966 5.658 14.318 8.718 20.547 3.984 4.89 10.566 9.85 21.1 14.63 31.715 1.549 3.443 2.622 7.1 3.633 11.067-6.704 4.518-8.922 9.579-6.993 15.725 2.209 7.042 6.448 9.8 14.686 9.555m-76.305-56.471c-5.375 5.412-6.559 10.385-3.816 16.037 2.305 4.751 9.002 8.927 13.62 8.493 5.87-.552 11.54-5.312 12.956-10.874 1.34-5.261-.928-11.78-5.106-14.682-5.124-3.559-11.74-3.368-17.654 1.026m-37.347 6.134c-.232 1.623-.67 3.247-.66 4.867.043 6.064 3.998 10.65 11.086 13.082 4.154 1.425 10.816-1.078 14.055-5.28 3.565-4.626 3.89-11.023.802-15.762-6.488-9.959-19.035-8.791-25.283 3.093m78.876-9.575c-7.48.279-13.593 6.382-13.57 13.548.025 7.71 6.442 14.56 14.24 14.307 6.387-.208 13.552-5.017 13.754-13.578.201-8.5-4.982-13.956-14.424-14.277m-46.19 43.312c-1.482 6.44.785 11.442 6.171 14.932 4.496 2.912 9.535 2.794 14.104.486 5.993-3.028 8.576-9.218 7.234-15.481-1.222-5.703-6.266-9.806-12.597-10.247-6.678-.466-11.899 2.956-14.912 10.31m.536-67.498c-3.209 10.985 2.624 17.922 14.454 18.353 6.309.23 11.492-5.674 12.518-10.749 1.263-6.25-2.664-13.381-8.197-15.376-7.65-2.756-12.836-.802-18.775 7.772m-6.307 1.488c-.871-1.765-1.482-3.732-2.664-5.256-3.488-4.498-8.44-5.877-13.741-4.834-5.598 1.1-9.39 4.881-10.844 10.391-1.434 5.432.3 10.158 4.653 13.767 4.577 3.794 10.09 3.773 14.967 1.751 6.29-2.607 8.881-8.115 7.63-15.82m64.98 62.952c-1.652-4.159-5.15-5.932-9.156-6.94-6.977-1.758-14.909 2.82-16.917 9.681-2 6.839 1.589 14.288 8.491 16.368 5.204 1.569 10.545 1.508 14.85-2.754 4.546-4.5 5.164-9.8 2.732-16.355z"/><path fill="#E1E8F3" d="M670.276 932.91c-.398-3.391-.797-6.783-.771-10.747 35.71-.425 70.997-.274 106.283-.133 16.812.067 33.626.008 50.436.223 8.393.107 16.058 2.253 19.599 10.968 5.223 12.86-3.103 25.129-17.059 25.1-44.777-.096-89.555-.293-134.332-.525-9.14-.047-18.279-.418-27.419-.64.785-2.591 1.57-5.183 3.088-7.99 23.135-.538 45.537-.885 67.94-1.172 6.98-.09 13.963.006 20.944-.047 1.146-.009 2.29-.349 3.435-.536l-.127-1.418h-91.376c-.258-3.343-.515-6.686-.264-10.49 56.446-.46 112.383-.46 168.32-.46l.002-.831-168.699-1.301z"/><path fill="#FDD3C5" d="m611.416 321.054 1.872 9.212 1.206-.069c.912-1.532 1.836-3.058 2.736-4.597 7.643-13.073 23.107-19.828 37.611-16.044 1.549.404 3.18 2.863 3.627 4.654 1.119 4.491 1.401 9.185 2.405 13.712.34 1.539 1.57 3.407 2.9 4.006.808.364 3.119-1.087 3.826-2.275 3.21-5.392 6.088-10.98 9.27-16.836 1.513 1.679 3.023 3.825 4.977 5.433 5.494 4.522 10.986 9.093 16.848 13.105 3.287 2.25 7.31 3.192 11.317-.049 5.067 2.372 6.282 9.002 2.637 13.474-1.24 1.522-2.643 3.284-4.36 3.976-6.414 2.588-9.102 8.501-13.18 13.328-5.675 6.715-12.377 12.564-19.314 18.885-1.913.496-3.191.798-4.385 1.3-8.426 3.552-17.07 4.818-26.052 2.542a179.575 179.575 0 0 1-11.538-3.312c-10.175-6.407-17.064-15.123-20.6-26.223-2.236-7.02-3.9-13.843-8.714-20.086-4.901-6.355-.443-13.96 6.91-14.136m42.07 28.002c-.676 2.723-1.331 5.783 2.777 5.752 1.828-.014 5.226-1.786 5.2-2.683-.136-4.75-1.134-9.476-1.833-14.21l-2.399-.33a1025.381 1025.381 0 0 1-3.744 11.471m-17.612-27.362c-.593.918-1.816 1.964-1.66 2.731.446 2.213 1.449 4.313 2.233 6.458 1.308-.719 3.293-1.128 3.789-2.216 1.239-2.718 1.103-5.537-2.175-7.087-.411-.195-.972-.074-2.187.114m39.958 5.437c-3.866 2.037-3.11 5.182-1.524 8.065.422.766 3.094 1.254 3.89.686 3.147-2.245 2.142-7.175-2.366-8.75m29.787 16.894c-.498 1.09-.996 2.18-1.649 3.605 5.831-1.69 8.116-6.094 5.144-9.695-1.059 1.903-2.06 3.701-3.495 6.09m-96.724-15.16-.925-2.754c-2.895 4.597-2.513 7.213 1.602 9.93-.254-2.406-.464-4.395-.677-7.176z"/><path fill="#90392D" d="M666.66 957.267c9.493.111 18.632.482 27.772.53 44.777.231 89.555.428 134.332.523 13.956.03 22.282-12.24 17.059-25.1-3.54-8.714-11.206-10.86-19.599-10.967-16.81-.215-33.624-.156-50.436-.223-35.286-.141-70.573-.292-106.307-.305-1.762-.055-3.212.044-4.355-.502-1.478-.707-2.71-1.928-4.047-2.927 1.417-.974 2.717-2.296 4.285-2.822 1.507-.505 3.29-.234 4.951-.224 52.748.296 105.496.597 158.243.909 11.806.07 20.713 5.778 23.93 15.28 3.397 10.038-.378 22.438-9.585 28.755-3.212 2.203-7.617 3.504-11.543 3.67-11.462.483-22.957.187-35.367.188-27.613-.051-54.3-.095-81.303-.401-17.138-.341-33.96-.42-50.781-.498l-2.885-2.564c1.761-1.07 3.522-2.141 5.636-3.322z"/><path fill="#DCE5EC" d="M637.046 981.213c2.683-4.095 3.077-8.527 2.425-13.62 15.95-.311 31.42-.15 46.89-.072 34.276.171 68.551.254 102.826.501 4.46.032 9.1.21 13.306 1.48 2.728.823 4.82 3.75 7.198 5.734-2.431 1.956-4.606 4.508-7.368 5.694-2.625 1.127-5.856.974-8.833 1.114-4.15.194-8.31.138-12.928.093-6.51-.06-12.557-.025-18.833-.04-.228-.05-.684.049-1.033-.032-.82-.029-1.291.023-2.22.002-5.446-.047-10.436-.021-15.89-.082-35.49-.315-70.515-.544-105.54-.772z"/><path fill="#F97" d="M633.99 381.77c3.788 1.016 7.565 2.078 11.367 3.041 8.981 2.276 17.626 1.01 26.052-2.541 1.194-.503 2.472-.805 4.075-1.134.378.422.39.779.172 1.652-2.987 3.31-6.583 5.66-8.336 8.982-4.843 9.178-8.915 18.762-13.612 28.278-1.124.368-1.93.645-2.734.922-.878.155-1.757.31-3.067.828-.432.364-.911.453-1.017.192-.6-.491-1.095-.721-1.785-1.246-2.47-1.795-4.744-3.296-7.17-5.105-2.752-4.044-5.354-7.78-7.94-11.934 1.343-7.591 2.669-14.763 3.995-21.936z"/><path fill="#5E9752" d="M781.024 982.233c4.156-.051 8.317.005 12.466-.19 2.977-.14 6.208.014 8.833-1.113 2.762-1.186 4.937-3.738 7.368-5.694-2.377-1.984-4.47-4.911-7.198-5.734-4.207-1.27-8.846-1.448-13.306-1.48-34.275-.247-68.55-.33-102.826-.5-15.47-.078-30.94-.24-46.876-.297-.991-.626-1.518-1.319-2.044-2.012 1-.368 1.998-1.045 3.003-1.055a511.823 511.823 0 0 1 23.458.262c7.28.337 13.774.398 20.727.461 2.781.014 5.105.023 7.428.04 34.669.25 69.337.501 104.006.753 2.954.41 5.987.532 8.844 1.304 3.93 1.062 7.761 2.674 8.007 7.646.243 4.933-3.137 6.94-7.785 8.342-1.129.244-1.617.467-2.106.691-2.108.127-4.216.255-7.106.343-2.486-.021-4.19-.004-5.893.013-2.708 0-5.417 0-8.573-.313-.44-.699-.434-1.083-.427-1.467z"/><path fill="#C5282B" d="M701.523 399.935c2.487 4.584 4.833 9.047 2.844 14.25-2.166 5.668-9.63 10.59-14.804 9.741-7.287-1.196-12.112-6.726-12.616-15.21.706-1.412 1.364-2.128 2.021-2.845 6.684-4.513 13.948-6.89 22.555-5.936z"/><path fill="#FDD3C5" d="M678.976 405.413c-.665 1.175-1.323 1.891-2.092 2.874-1.543 1.359-2.974 2.452-5.004 3.76a2838.186 2838.186 0 0 0-17.853 7.91c4.378-9.425 8.45-19.01 13.293-28.187 1.753-3.322 5.349-5.671 8.338-8.712 1.265 3.363 2.7 6.919 3.214 10.603.515 3.698.112 7.524.104 11.752z"/><path fill="#C5282B" d="M737.022 415.607c-3.914 5.254-8.61 9.363-15.412 7.619-10.6-2.718-13.783-10.115-9.635-21.498 4.384 1.113 9.03 1.99 12.916 4.202 4.371 2.488 8.058 6.18 12.131 9.677zm28.317 37.864c-6.172 5.111-17.524 2.051-20.49-3.607-3.757-7.168-1.819-14.38 6.08-18.957 2.743 2.856 5.114 5.787 7.751 8.91 2.378 4.555 4.49 8.916 6.659 13.654z"/><path fill="#82A04D" d="M780.562 982.137c.455.48.448.864.438 1.536-38.833.268-77.663.245-116.493.235-2.832-.001-5.663.093-8.946.208-5.585.019-10.725.094-15.848-.171-1.042-.054-2.018-1.393-2.845-2.436 35.203-.068 70.227.16 106.017.753 5.859.202 10.954.04 16.048-.123.472-.051.943-.103 1.85.064.434.218.86.294.86.294l.314-.35c6.048-.035 12.095-.07 18.605-.01z"/><path fill="#D1CFD6" d="M670.205 933.273c56.304.072 112.537.505 168.77.939l-.001.831c-55.938 0-111.875 0-168.249.028-.488-.46-.54-.947-.52-1.798zm.471 12.929c30.7-.209 61.158-.209 91.617-.209l.127 1.418c-1.145.187-2.289.527-3.435.536-6.981.053-13.964-.043-20.945.047-22.402.287-44.804.634-67.686.917-.293-.86-.105-1.68.322-2.71z"/><path fill="#CCB39D" d="M796.055 965.426c-34.66-.004-69.33-.255-103.998-.505-2.323-.017-4.647-.026-7.129-.29 9.92-.407 20-.562 30.078-.717 26.687.043 53.374.087 80.522.202.475.402.494.732.527 1.31z"/><path fill="#A0745D" d="M714.69 963.65c-9.762.419-19.841.574-30.22.98-6.794.188-13.288.127-20.096-.188-.34-.427-.366-.599-.429-1.03 16.786-.18 33.607-.102 50.745.239z"/><path fill="#82A04D" d="M803.26 983.748c.252-.315.74-.538 1.51-.75.205.184.128.357-.119.762-.495.168-.824.117-1.39-.012z"/><path fill="#FDAEA8" d="M633.819 381.5c-1.155 7.442-2.481 14.614-4.196 22.139-6.003-1.98-11.617-4.301-18.03-.851-2.134.412-3.866.85-5.995 1.269-9.937 2.032-17.949 6.804-25.069 13.86-2.226 1.881-4.162 3.582-6.59 5.717 3.702 3.357 6.865 6.226 10.194 9.403 1.362 1.424 2.557 2.537 3.752 3.651 7.83 7.295 7.83 7.295 17.579 1.441 13.53-5.696 26.683-11.393 39.836-17.09.495.23.99.46 1.374 1.2-16.884 7.745-33.704 14.876-50.388 22.313-3.087 1.375-4.663.623-6.779-1.53-8.612-8.766-17.378-17.385-26.184-25.958-.93-.904-3.046-1.983-3.68-1.566-3.376 2.224-6.456 4.9-10.016 7.478-1.46 2.04-3.451 4.012-3.47 6.003-.092 9.827.338 19.658.339 29.64-4.455 9.132-8.663 18.111-12.872 27.09-29.192 3.383-52.342 18.631-73.35 37.783-27.956 25.487-49.69 55.96-69.447 87.957-2.1 3.401-4.142 6.837-6.486 10.455 2.279-10.968 4.542-22.21 7.466-33.279 3.185-12.058 6.982-23.955 10.706-36.482.288-.926.383-1.291.558-2.05 1.064-2.824 1.997-5.276 3.04-7.68 10.52-24.227 20.268-48.833 31.864-72.535 8.073-16.5 18.69-31.755 28.172-47.566a6543.21 6543.21 0 0 1 13.064-17.087c1.84-2.395 3.284-4.313 4.983-6.375.535-.643.815-1.142 1.116-1.643.022 0 .044.038.044.038 14.6-14.282 29.17-28.597 43.835-42.813 2.256-2.188 4.946-3.927 7.63-6.144 18.418-12.898 37.454-24.002 58.625-31.003 5.188-1.715 10.521-2.994 16.202-4.495.297 2.45.18 4.921-.084 7.828-7.5.612-11.958 8.217-7.057 14.572 4.815 6.243 6.478 13.065 8.715 20.086 3.535 11.1 10.424 19.816 20.599 26.223z"/><path fill="#CCB39D" d="M546.742 458.468c-.247-9.83-.677-19.662-.585-29.49.019-1.99 2.01-3.962 3.758-5.827a1179.02 1179.02 0 0 1 37.037 33.3c-.317 2.371-.787 4.328-.809 6.29-.13 12.13-.12 24.263-.268 36.394-.021 1.74-.64 3.471-.982 5.206-10.651-9.5-22.844-15.833-37.413-18.646-.488-9.49-.613-18.359-.738-27.227zm73.191 99.753c-7.958-13.799-15.917-27.598-23.918-42.2.013-7.572.07-14.34.451-21.025 2.126 2.628 3.706 5.365 5.766 7.675 7.179 8.052 14.573 15.91 21.79 23.927 7.092 7.877 14.067 15.859 20.708 23.945-8.523 2.66-16.66 5.169-24.797 7.678z"/><path fill="#A0745D" d="M596.14 494.911c-.056 6.77-.112 13.538-.236 20.787-3.61-3.285-7.15-7.05-10.85-11.085.181-2.007.8-3.739.82-5.478.148-12.13.138-24.264.27-36.395.02-1.961.491-3.918 1.15-6.253 2.78-.633 5.161-.89 7.591-.731.336 7.688.624 14.962.61 22.244-1.058.662-1.815 1.314-2.611 2.463 1.058 5.147 2.157 9.798 3.256 14.448z"/><path fill="#E03232" d="M619.97 558.521c8.1-2.81 16.237-5.319 25.053-7.774a88.362 88.362 0 0 1 9.57 10.301c-6.382 1.775-9.65 5.878-10.594 11.977-1.795-.562-3.591-1.125-5.694-2.235-3.108-8.2-5.939-9.753-17.208-9.814-.364-.718-.727-1.437-1.127-2.455z"/><path fill="#DE2F36" d="M546.496 458.62c.37 8.716.496 17.585.636 26.925-4.165.411-8.344.352-13.015.229 3.716-9.044 7.924-18.023 12.379-27.154z"/><path fill="#C5282B" d="M621.115 561.342c11.251-.305 14.082 1.248 16.886 9.268-3.964-.369-7.93-1.106-12.296-1.811-1.789-2.343-3.18-4.717-4.59-7.457z"/><path fill="#FED3C5" d="M654.945 561.007c-3.08-3.402-6.162-6.803-9.536-10.41-7.32-8.14-14.295-16.122-21.386-23.999-7.218-8.017-14.612-15.875-21.791-23.927-2.06-2.31-3.64-5.047-5.766-7.675-1.425-4.735-2.524-9.386-3.208-14.337 8.427 4.958 16.594 9.998 24.391 15.558 4.482 3.196 8.363 7.233 12.515 10.892l1.12-1.264c-9.006-11.258-18.997-21.441-32.058-28.351 1.377-.673 2.573-1.075 3.81-1.12.491.777.866 1.4 1.397 1.593 11.9 4.325 22.197 11.222 31.638 19.528.355.312 1.09.191 1.65.272-7.807-11.728-17.712-20.205-31.457-23.3 9.198-4.42 18.182-2.908 26.47 1.086 8.596 4.141 16.569 9.573 24.814 14.44a5879.374 5879.374 0 0 1 19.305 16.14 13142.01 13142.01 0 0 1 16.16 15.881 13513.83 13513.83 0 0 0 15.859 18.165c4.735 6.174 9.055 11.894 14.25 18.772l-1.514-14.575c.956-.26 1.282-.456 1.569-.41 4.902.787 9.799 1.603 14.697 2.413a310.32 310.32 0 0 0 6.13 1.686c7.393 2.26 14.09 4.372 20.788 6.485 5.774 2.808 11.548 5.616 17.862 8.76 6.81 5.53 13.08 10.723 19.349 15.916 7.39 25.248.586 48.388-11.086 70.533-5.606 10.636-16.479 13.952-30.003 9.486-6.867-2.268-13.209-6.125-20.266-9.633-1.589-1.103-2.7-1.835-3.965-2.854-4.58-4.176-9.008-8.062-13.427-11.959-1.789-1.578-3.555-3.182-5.332-4.774 0 0 .04.029-.01-.165-.29-.343-.544-.457-.815-.535-9.232-10.271-18.465-20.542-28.086-31.334-6.21-6.79-12.031-13.062-17.96-19.643-5.44-5.986-10.774-11.664-16.108-17.341z"/><path fill="#C5282B" d="M654.594 561.048c5.685 5.636 11.019 11.314 16.39 17.673-.625 2.5-1.285 4.318-1.946 6.137-8.184-3.777-16.368-7.555-24.795-11.582.7-6.35 3.968-10.453 10.35-12.228zm63.368 69.332c1.739 1.237 3.505 2.841 5.294 4.42 4.419 3.896 8.848 7.782 13.177 12.165-2.719 2.373-5.342 4.252-7.966 6.13-3.489-7.452-6.978-14.906-10.505-22.714z"/><path fill="#DE2F36" d="M669.277 585.099c.422-2.06 1.082-3.879 1.813-6.07 5.892 5.9 11.713 12.171 17.66 18.756-6.328-3.94-12.781-8.192-19.473-12.686zm59.256 68.418c2.558-2.3 5.181-4.179 8.055-6.265 1.36.525 2.471 1.257 3.73 2.298-2.873 4.667-5.894 9.026-9.176 13.527-1.022-2.952-1.783-6.045-2.61-9.56z"/><path fill="#233259" d="M569.014 979.488c-3.431 2.13-6.877 3.874-10.695 5.519-.53-5.156 4.085-5.83 7.075-7.84.53-.356 2.37 1.24 3.62 2.32z"/><path fill="#C5282B" d="M717.136 629.556c.234-.153.489-.04.802.308.073.197-.4.223-.4.223s-.365-.3-.402-.53z"/><path fill="#FEAFA9" d="m915.943 675.04.74.422c-.199.006-.398.012-.647-.217-.049-.236-.093-.204-.093-.204zm-.615-1.348c.44.142.674.472.762 1.075-.147.274-.103.242-.083.223-.325-.087-.67-.154-1.148-.47-.002-.38.131-.51.469-.828z"/><path fill="#354B37" d="M473.373 243.993c-1.008-9.98-1.684-20.008-2.312-30.04-.05-.793.232-1.608.644-2.679 4.026-5.505 7.665-10.823 11.547-15.956 2.466-3.262 6.536-4.713 9.717-2.797 2.198 1.323 3.77 5.35 3.858 8.223.402 12.999-4.195 24.366-13.025 33.886-3.103 3.345-6.708 6.224-10.429 9.363zm10.567 155.002c-1.445 1.917-2.89 3.835-4.624 5.91-.632-11.213-.975-22.583-1.318-34.419 3.325-7.267 6.534-14.128 10.02-20.845 1.891-3.644 4.103-7.149 6.458-10.516 1.682-2.405 4.077-4.28 7.21-2.603 3.225 1.726 4.061 4.695 2.931 8.1-2.44 7.358-4.715 14.784-7.528 21.999-3.545 9.091-7.576 17.993-11.349 26.996-.369.88-.4 1.902-.487 3.243.101.385.079.346-.257.304-.575.582-.816 1.206-1.056 1.83z"/><path fill="#FFF" d="M1033.363 715.912c-.131.684-.646 1.46-1.16 2.238l-.935-.703c.571-.481 1.142-.962 2.095-1.535zm11.521 38.98c-.374.414-.936.638-1.499.862.155-.335.31-.67.68-1.195.353-.08.492.032.819.333z"/><path fill="#95E0E7" d="M267.272 559.47c-12.68.387-25.49.45-38.828.12-.793-1.183-1.12-1.954-1.32-2.757-21.26-85.06-42.523-170.119-63.756-255.185-10.514-42.123-20.97-84.26-31.453-126.39 21.625-.737 43.25-1.5 64.878-2.156 1.684-.051 3.39.649 4.731 1.444-11.929.444-23.503.444-35.774.444.71 2.136.986 3.389 1.523 4.516 13.796 28.96 27.615 57.91 41.437 86.858 10.743 22.499 21.476 45.003 32.246 67.488a88885.466 88885.466 0 0 0 47.446 98.922c9.504 19.781 19.128 39.504 28.578 59.311 2.847 5.965 5.288 12.123 7.915 18.193-10.918-6.874-21.283-14.924-32.874-20.36-19.917-9.34-41.06-11.203-61.92-2.949-13.881 5.492-16.679 18.17-6.526 29.194 8.413 9.135 18.197 16.993 27.132 25.666 5.706 5.54 10.972 11.532 16.565 17.642z"/><path fill="#BEECF1" d="M325.046 510.562c-2.778-6.354-5.22-12.512-8.066-18.477-9.45-19.807-19.074-39.53-28.578-59.31a88885.466 88885.466 0 0 1-47.446-98.923c-10.77-22.485-21.503-44.99-32.246-67.488a105259.646 105259.646 0 0 1-41.437-86.858c-.537-1.127-.812-2.38-1.523-4.516 12.271 0 23.845 0 35.898-.055.866.05 1.254.156 1.974.7 13.016 22.248 25.642 44.09 38.398 65.856 14.696 25.08 29.52 50.084 44.264 75.135 15.335 26.054 30.69 52.095 45.924 78.208 3.818 6.545 7.203 13.342 10.511 20.232-7.04 5.44-8.637 11.24-4.145 18.392 3.051 4.857 6.923 9.405 11.186 13.25 8.498 7.666 17.518 14.752 26.396 22.355.394.453.716.628.98.8-.058-.005.038-.072 0 .302.596 1.694 1.165 3.05 1.874 4.327 4.294 7.73 8.62 15.443 12.555 23.293-1.516.37-2.659.582-3.786.856-10.952 2.661-14.017 9.254-8.666 19.194 2.355 4.375 5.143 8.53 7.896 12.676 3.91 5.889 7.969 11.678 11.979 17.498a.904.904 0 0 0 .041-.04c-.618-.097-1.387.009-1.833-.321-12.143-8.965-25.956-14.481-40.543-17.114-13.49-2.434-22.449-10.787-31.607-19.972zm77.944 39.924c-.094.366-.19.73-.374 1.259-.556-.273-1.022-.708-1.554-1.442-.066-.299-.093-.27.25-.216.79.169 1.234.284 1.679.4zm-2.969-1.508c-.34-.14-.679-.28-1.005-.714.013-.294-.014-.267.221-.184.4.373.566.663.744.94l.04-.042z"/><path fill="#BEECF1" d="M401.011 549.99c-.317-.152-.649-.29-.985-.72-.005-.292-.032-.264.215-.202.408.363.568.664.728.966 0 0 .027-.03.042-.044z"/><path fill="#D1CFD6" d="M731 1015.999h-67.773c3.175-3.81 165.552-3.991 183.688-1.131-38.472.377-76.943.754-115.915 1.131z"/><path fill="#E1E8F3" d="M263.126 1012.758c-22.375-11.777-44.403-23.421-66.435-35.059-5.698-3.01-11.463-5.9-17.064-9.08-1.144-.649-1.693-2.345-2.517-3.56 1.532-.09 3.378-.788 4.55-.183 16.962 8.77 33.84 17.704 50.726 26.62 20.108 10.616 40.221 21.224 60.27 31.954 1.256.672 1.963 2.37 2.926 3.591-1.77.079-3.88.825-5.257.127-9.039-4.584-17.92-9.48-27.199-14.41z"/><path fill="#DCE5EC" d="M528.452 1072.567c24.653-13.105 48.96-26.065 73.339-38.892 1.36-.716 3.302-.324 4.973-.448-.977 1.492-1.602 3.633-2.981 4.38-26.111 14.135-52.315 28.097-78.49 42.114-10.515 5.63-20.972 11.372-31.554 16.874-1.256.654-3.133.113-4.723.126.845-1.288 1.388-3.108 2.58-3.781 12.115-6.84 24.335-13.494 36.856-20.373z"/><path fill="#95E0E7" d="M193.956 559.953c-31.35.014-62.698.028-94.517.012-.431-2.194-.36-4.358-.36-6.522.006-123.437.005-246.874.006-370.311 0-8.053 0-8.053 8.138-8.054 2.332 0 4.665-.001 7.712-.017.715-.014 1.189.044 1.153.462.097 1.73.117 3.065.382 4.35 2.137 10.364 4.368 20.709 6.482 31.077 7.567 37.101 15.103 74.21 22.642 111.316 6.486 31.923 12.946 63.852 19.444 95.773 5.969 29.326 11.98 58.644 17.959 87.969 3.666 17.979 7.307 35.963 10.959 53.945z"/><path fill="#94DFE5" d="M342.995 414.858c-3.584-6.682-6.969-13.48-10.787-20.024-15.233-26.113-30.59-52.154-45.924-78.208-14.744-25.051-29.568-50.056-44.264-75.135-12.756-21.766-25.382-43.608-38.115-65.747a14.941 14.941 0 0 1 4.407-.655c45.228-.01 90.456 0 136.147-.002.375 7.622.288 15.252-.162 23.45-20.972 4.794-35.94 16.317-44.67 35.48-6.032 13.245-6.535 27.315-4.742 41.512.303 2.398 1.193 6.048 2.737 6.62 1.829.676 5.09-.814 6.984-2.31 9.226-7.286 18.202-14.889 27.584-22.641.877 1.233 1.927 2.676 2.943 4.141 3.978 5.736 7.724 11.65 11.978 17.172 4.208 5.462 6.91 5.2 10.792-.315.955-1.358 1.981-2.665 3.253-3.747 7.973 7.609 15.668 14.97 23.363 22.331l-1.059 1.04c-6.47-2.917-12.775-6.299-19.444-8.647-11.74-4.133-23.645-7.83-35.604-11.285-3.782-1.093-7.72-.082-10.104 3.703-2.478 3.934-1.57 7.915.982 11.205 3.554 4.578 7.233 9.23 11.611 12.968 19.736 16.855 39.747 33.388 59.617 50.087 1.082.909 1.785 2.27 2.664 3.42-7.432-2.294-13.965-5.16-20.64-7.647-15.163-5.648-30.519-10.626-46.923-10.937-4.855-.092-9.386 1.023-11.949 5.726-2.69 4.937-.985 9.568 2.058 13.493 3.554 4.583 7.288 9.212 11.709 12.905 16.852 14.08 34.01 27.795 51.06 41.637 1.535 1.246 3.12 2.43 4.683 3.642-2.407.544-4.115-.014-5.858-.421-11.3-2.64-22.524-6.295-34.327-2.811z"/><path fill="#BFECF1" d="M194.429 559.97c-4.125-17.999-7.766-35.983-11.432-53.962-5.98-29.325-11.99-58.643-17.96-87.97-6.497-31.92-12.957-63.849-19.443-95.772-7.54-37.107-15.075-74.215-22.642-111.316-2.114-10.368-4.345-20.713-6.482-31.077-.265-1.285-.285-2.62.07-4.376 5.166-.482 9.842-.52 14.518-.557 0 0 .45.1.654.208 10.685 42.24 21.142 84.377 31.656 126.5 21.233 85.066 42.496 170.125 63.756 255.185.2.803.527 1.574.854 2.742-10.985.391-22.03.402-33.55.395z"/><path fill="#94DFE5" d="M130.962 174.545c-4.58.433-9.256.47-14.385.534-.453.026-.927-.032-1.165-.032.024-.564.303-1.629.545-1.62 4.972.167 9.94.457 15.005 1.118z"/><path fill="#277850" d="M342.719 415.066c12.08-3.692 23.303-.037 34.603 2.603 1.743.407 3.451.965 5.858.42-1.562-1.212-3.148-2.395-4.683-3.641-17.05-13.842-34.208-27.556-51.06-41.637-4.421-3.693-8.155-8.322-11.709-12.905-3.043-3.925-4.747-8.556-2.058-13.493 2.563-4.703 7.094-5.818 11.948-5.726 16.405.311 31.761 5.289 46.925 10.937 6.674 2.487 13.207 5.353 20.64 7.647-.88-1.15-1.583-2.511-2.665-3.42-19.87-16.7-39.88-33.232-59.617-50.087-4.378-3.739-8.057-8.39-11.61-12.968-2.554-3.29-3.46-7.271-.983-11.205 2.383-3.785 6.322-4.796 10.104-3.703 11.959 3.454 23.864 7.152 35.604 11.285 6.67 2.348 12.975 5.73 19.444 8.647l1.059-1.04c-7.695-7.36-15.39-14.722-23.3-22.62 4.61-8.81 9.435-17.085 14.485-25.745 1.296 1.205 2.195 1.89 2.913 2.73 7.14 8.344 14.134 16.816 21.448 25.002 1.832 2.052 4.664 3.21 7.037 4.778 1.408-2.294 3.444-4.417 4.121-6.91 3.882-14.297 2.627-28.264-3.552-41.754-6.659-14.535-18.193-23.852-32.525-30.632-2.229-9.053-4.38-17.718-6.46-26.784-.535-2.9-1.141-5.4-1.727-8.248-1.756-10.565-.105-20.56 1.967-30.528 2.441-6.241 8.203-8.554 13.655-10.656 19.602-7.557 38.341-5.62 55.798 6.318 1.702 1.163 2.902 3.06 4.467 5.395.797 21.802 1.296 42.83 2.175 63.843.753 18 1.942 35.981 2.642 53.83-4.475-4.58-8.348-9.382-12.986-13.272-1.8-1.51-5.702-1.96-7.982-1.111-3.378 1.258-4.014 4.716-3.3 8.453 3.296 17.24 12.01 32.212 19.632 47.649 3.362 6.81 6.705 13.63 10.08 20.86 1.31 11.145 2.595 21.876 3.517 32.657-3.767 1.317-4.397 3.967-3.083 6.848 1.894 4.152 4.26 8.09 6.428 12.567 1.205 10.207 2.319 19.977 3.673 29.714.284 2.045 1.451 3.968 2.211 5.947.013.704.025 1.408-.123 2.58-.055.768.051 1.07.157 1.371.062 4.094.123 8.188.222 12.766-9.443 16.295-20.06 31.55-28.134 48.05-11.596 23.702-21.343 48.308-31.864 72.535-1.043 2.404-1.976 4.856-3.04 7.68-.525.278-.97.163-1.758-.006-.504-.355-.664-.656-1.085-1.005-.425-.339-.59-.629-1.005-.99-4.245-5.903-8.304-11.692-12.214-17.581-2.753-4.147-5.54-8.3-7.896-12.676-5.351-9.94-2.286-16.533 8.666-19.194 1.127-.274 2.27-.485 4.205-.793 5.126-.446 9.453-.826 14.228-1.09 2.698.113 4.946.113 7.857.113-.445-5.584-4.609-6.387-8.32-8.109-9.66-6.5-19.117-12.736-28.575-18.971 0 0-.096.067-.119-.196-.339-.445-.656-.627-.972-.81-8.805-7.325-17.825-14.411-26.323-22.076-4.263-3.846-8.135-8.394-11.186-13.251-4.492-7.152-2.895-12.951 4.145-18.392m41.735 4.242-.147.232s.328-.03.147-.232z"/><path fill="#ECB762" d="M375.225 202.016c14.253 6.393 25.787 15.71 32.446 30.245 6.18 13.49 7.434 27.457 3.552 41.754-.677 2.493-2.713 4.616-4.121 6.91-2.373-1.568-5.205-2.726-7.037-4.778-7.314-8.186-14.308-16.658-21.448-25.002-.718-.84-1.617-1.525-2.913-2.73-5.05 8.66-9.876 16.934-14.763 25.497-1.057 1.619-2.083 2.926-3.038 4.284-3.882 5.515-6.584 5.777-10.792.315-4.254-5.522-8-11.436-11.978-17.172-1.016-1.465-2.066-2.908-2.943-4.141-9.382 7.752-18.358 15.355-27.584 22.641-1.894 1.496-5.155 2.986-6.984 2.31-1.544-.572-2.434-4.222-2.737-6.62-1.793-14.197-1.29-28.267 4.743-41.512 8.728-19.163 23.697-30.686 44.651-35.02 2.934-.315 5.522-.523 8.92-.815 7.883 1.223 14.954 2.529 22.026 3.834z"/><path fill="#155736" d="M447.96 254.94c-.997-17.99-2.186-35.971-2.939-53.97-.88-21.013-1.378-42.042-2.03-63.537 3.974 5.286 9.2 10.562 11.624 16.91 4.372 11.45 5.66 23.629 5.548 36.084-.212 23.59.47 47.188.889 70.782.105 5.956.618 11.905.663 18.116-4.772-7.956-9.264-16.17-13.755-24.385z"/><path fill="#354B37" d="M447.663 254.798c4.788 8.357 9.28 16.571 14.052 24.994.945 16.576 1.61 32.945 1.929 49.722-1.756-1.186-3.252-2.712-4.554-4.39-2.07-2.667-4.011-5.434-6.007-8.16-3.351-6.815-6.694-13.636-10.056-20.446-7.622-15.437-16.336-30.41-19.631-47.649-.715-3.737-.08-7.195 3.3-8.453 2.28-.85 6.181-.399 7.981 1.11 4.638 3.891 8.51 8.693 12.986 13.272z"/><path fill="#94DFE5" d="M375.146 201.629c-6.993-.918-14.064-2.224-21.543-3.553-.648-7.501-.89-14.98-.427-22.742 5.616-.218 10.528-.153 15.44-.088a14447.9 14447.9 0 0 1 6.53 26.383z"/><path fill="#165737" d="M453.107 317.378c1.972 2.312 3.912 5.08 5.983 7.747 1.302 1.677 2.798 3.203 4.543 4.86.349 8.402.362 16.742.073 25.395-2.44-1.589-4.579-3.492-6.717-5.395a14077.399 14077.399 0 0 1-3.882-32.607z"/><path fill="#354B37" d="M456.624 350.035c2.503 1.853 4.641 3.756 7.079 5.814.625 5.19.95 10.226.937 15.683-1.785-.562-3.23-1.546-4.676-2.53-2.164-4.03-4.53-7.967-6.423-12.12-1.314-2.88-.684-5.53 3.083-6.847z"/><path fill="#49A6B7" d="M353.654 167.13c4.365-.192 8.366-.166 12.826-.162 1.065 2.477 1.67 4.976 2.206 7.877-4.982.336-9.894.27-15.276.173-.354-2.579-.237-5.125.244-7.889z"/><path fill="#165737" d="M459.97 369.45c1.44.536 2.885 1.52 4.658 2.546.659 10.76.99 21.478 1.273 32.655-.808-1.52-1.975-3.442-2.259-5.487-1.354-9.737-2.468-19.507-3.673-29.714zm5.938 39.328c-.127-.018-.233-.32-.188-.736.17.075.19.264.188.736z"/><path fill="#82A04D" d="M790.281 984.261c1.447-.265 3.15-.282 5.278-.273-1.39.192-3.205.357-5.278.273z"/><path fill="#C5282B" d="M798.076 553.527c-2.639.785-5.25 1.402-7.868 1.43-7.64.082-13.97-5.835-14.194-13.017-.219-6.967 6.058-13.49 13.42-13.939.664-.04 1.33-.038 2.449-.1 2.375 8.366 4.296 16.777 6.193 25.626zm-6.771-32.033c-8.19.662-12.43-2.097-14.64-9.139-1.928-6.146.29-11.207 7.07-15.364 2.745 7.997 5.134 16.043 7.57 24.503zm10.694 57.34c-6.266-4.8-12.535-9.994-19.001-15.465 5.433-3.796 10.89-2.64 16.606.487 1.014 4.966 1.702 9.776 2.395 14.978z"/><path fill="#CCB39D" d="M602.994 476.018c-1.195.401-2.39.803-4.167 1.553-1.397.372-2.213.396-3.03.42-.288-7.273-.576-14.547-.546-22.374 13.332-6.009 26.368-11.41 39.35-16.941 7.121-3.034 14.15-6.286 21.22-9.439 0 0 .393-.097.747.281.662 2.306 1.196 4.229 1.24 6.162.154 6.775.139 13.555.188 20.333a850.668 850.668 0 0 0-.12 6.025c.113 9.922.231 18.954.349 27.987l-.508-.024c-8.414-4.875-16.387-10.307-24.982-14.448-8.29-3.994-17.273-5.506-26.791-.994-1.335.745-2.143 1.102-2.95 1.459z"/><path fill="#E1E8F3" d="M655.611 428.98a395.07 395.07 0 0 1-21.01 9.696c-12.982 5.53-26.018 10.932-39.398 16.526-2.748.395-5.13.652-7.854.874-12.485-10.96-24.627-21.885-37.056-32.984 2.894-2.695 5.974-5.37 9.35-7.594.634-.417 2.75.662 3.68 1.566 8.806 8.573 17.572 17.192 26.184 25.958 2.116 2.153 3.692 2.905 6.779 1.53 16.684-7.437 33.504-14.568 50.494-22.053.216-.248.695-.337.919-.432 2.716 2.154 5.209 4.405 7.912 6.912z"/><path fill="#C5282B" d="M715.316 465.173c5.645-4.128 12.261-4.319 17.385-.76 4.178 2.902 6.445 9.421 5.106 14.682-1.416 5.562-7.087 10.322-12.956 10.874-4.618.434-11.315-3.742-13.62-8.493-2.743-5.652-1.56-10.625 4.085-16.303zm-37.505 6.02c6.137-11.504 18.684-12.672 25.172-2.713 3.088 4.74 2.763 11.136-.802 15.761-3.239 4.203-9.9 6.706-14.055 5.28-7.088-2.431-11.043-7.017-11.085-13.08-.012-1.621.427-3.245.77-5.248zm79.192-9.195c9.015.32 14.198 5.777 13.997 14.277-.202 8.56-7.367 13.37-13.754 13.578-7.798.253-14.215-6.598-14.24-14.307-.023-7.166 6.09-13.27 13.997-13.548zm-46.459 42.942c2.855-6.984 8.076-10.406 14.754-9.94 6.33.441 11.375 4.544 12.597 10.247 1.342 6.263-1.241 12.453-7.234 15.48-4.569 2.309-9.608 2.427-14.104-.485-5.386-3.49-7.653-8.493-6.013-15.303zm.469-67.51c5.848-8.192 11.034-10.146 18.684-7.39 5.533 1.995 9.46 9.127 8.197 15.376-1.026 5.075-6.21 10.979-12.518 10.749-11.83-.431-17.663-7.368-14.363-18.735zm-6.269 2.262c1.123 7.312-1.467 12.82-7.758 15.427-4.878 2.022-10.39 2.043-14.967-1.751-4.353-3.609-6.087-8.335-4.653-13.767 1.454-5.51 5.246-9.291 10.844-10.391 5.301-1.043 10.253.336 13.741 4.834 1.182 1.524 1.793 3.491 2.793 5.648zm64.998 62.928c2.286 6.186 1.668 11.485-2.878 15.986-4.305 4.262-9.646 4.323-14.85 2.754-6.902-2.08-10.491-9.53-8.49-16.368 2.007-6.862 9.94-11.439 16.916-9.682 4.006 1.01 7.504 2.782 9.302 7.31zm-4.815 51.571c-6.833-1.754-13.53-3.867-20.565-6.148-2.163-10.322.135-16.174 7.074-19.035 6.1-2.515 13.702-.633 17.117 4.237 3.871 5.52 3.379 12.642-1.235 17.934a37.166 37.166 0 0 0-2.39 3.012zm-71.53-32.184c-5.621-5.146-10.858-10.298-16.233-15.755 3.746-10.805 12.181-12.81 18.844-10.429 6.259 2.237 9.4 6.982 8.988 14.233-.338 5.976-4.918 10.855-11.599 11.95zm44.513 23.898c-4.934-.336-9.831-1.152-14.733-1.939-.287-.046-.613.15-1.569.41l1.514 14.575c-5.195-6.878-9.515-12.598-13.942-18.634.43-1.134 1.184-1.882 1.471-2.779 2.671-8.337 10.072-10.553 16.942-9.351 5.408.946 11.208 5.864 10.413 14.758-.074.824-.042 1.657-.095 2.96zm-79.323-55.902c-.48-9.01-.598-18.043-.651-27.541 7.175-.321 12.83 3.934 13.982 10.008 1.336 7.043-2.03 13.19-8.786 15.982-1.37.566-2.787 1.022-4.545 1.551zm-.176-33.992c-.464-6.776-.45-13.556-.603-20.331-.044-1.933-.578-3.856-1.039-6.175 8.346-.615 12.764 2.344 14.767 9.6 1.777 6.436-.775 12.46-7.048 15.78-1.63.863-3.76.776-6.077 1.126zm-4.703-35.963c6.07-2.656 11.821-5.22 17.913-7.78-3.535 10.688-11.282 14.185-20.434 8.993.592-.568 1.397-.845 2.521-1.213z"/><path fill="#F97" d="M653.636 348.672c1.298-3.95 2.446-7.519 3.594-11.086l2.4.33c.698 4.733 1.696 9.459 1.832 14.209.026.897-3.372 2.669-5.2 2.683-4.108.031-3.453-3.029-2.626-6.136z"/><path fill="#2B3340" d="M636.236 321.587c.853-.08 1.414-.202 1.825-.007 3.278 1.55 3.414 4.369 2.175 7.087-.496 1.088-2.481 1.497-3.789 2.216-.784-2.145-1.787-4.245-2.234-6.458-.155-.767 1.068-1.813 2.023-2.838z"/><path fill="#354B37" d="M676.225 327.068c4.115 1.639 5.12 6.569 1.972 8.814-.795.568-3.467.08-3.889-.686-1.586-2.883-2.342-6.028 1.917-8.128z"/><path fill="#F97" d="M705.837 343.73c1.218-2.093 2.218-3.891 3.277-5.794 2.972 3.6.687 8.004-5.144 9.695.653-1.426 1.15-2.516 1.867-3.9zm-96.941-14.468c.212 2.385.422 4.374.676 6.78-4.115-2.716-4.497-5.333-1.602-9.93.383 1.14.654 1.947.926 3.15z"/><path fill="#5E9752" d="M758.477 982.067c-4.638.235-9.733.397-15.127.282 4.69-.303 9.68-.329 15.127-.282zm3.252.03c.228.05-.086.4-.086.4s-.426-.076-.512-.214c-.086-.137.37-.237.598-.186z"/><path fill="#E03232" d="m583.967 432.728-10.029-9.094c2.43-2.135 4.365-3.836 6.762-5.39 4.588 3.94 8.918 7.329 14.994 4.867 7.751-3.139 10.298-6.867 10.306-14.56.001-1.491-.003-2.983-.005-4.476 1.732-.437 3.464-.875 5.595-.857.289 1.105.24 1.771.06 2.399-1.622 5.622-.407 10.724 4.032 14.336 4.66 3.792 10.076 6.053 15.818 1.77 2.334-1.74 4.4-3.84 6.587-5.775 2.274 1.5 4.548 3.001 7.018 4.796-12.958 5.992-26.112 11.69-39.703 17.022-1.173-1.639-1.762-3.032-2.67-4.17-4.628-5.802-15.137-6.253-18.765-.868z"/><path fill="#C5282B" d="M637.936 415.639c-2.037 2.245-4.102 4.344-6.436 6.084-5.742 4.283-11.157 2.022-15.818-1.77-4.44-3.612-5.654-8.714-4.032-14.336.18-.628.229-1.294.342-2.372 6.014-3.907 11.628-1.586 17.614.813 2.975 3.802 5.577 7.537 8.33 11.58zm-32.338-11.582c.399 1.51.403 3.003.402 4.495-.008 7.692-2.555 11.42-10.306 14.56-6.076 2.46-10.406-.928-14.704-5.048 6.66-7.203 14.67-11.975 24.608-14.007zm-21.465 28.98c3.462-5.694 13.97-5.243 18.6.56.907 1.137 1.496 2.53 2.293 4.168-9.311 6.218-9.311 6.218-17.141-1.077-1.195-1.114-2.39-2.227-3.752-3.65z"/><path fill="#155736" d="M484.194 398.85c-.014-.48.227-1.104.78-1.685.035.543-.245 1.042-.78 1.685z"/><path fill="#C86A40" d="M595.496 478c1.118-.033 1.934-.057 3.15-.158 13.64 6.562 23.632 16.745 32.638 28.003l-1.12 1.264c-4.152-3.659-8.033-7.696-12.515-10.892-7.797-5.56-15.964-10.6-24.35-16.055.381-.848 1.138-1.5 2.197-2.162zm7.541-1.627c.764-.712 1.572-1.07 2.699-1.519 14.273 2.708 24.178 11.185 31.984 22.913-.558-.081-1.294.04-1.65-.272-9.44-8.306-19.737-15.203-31.637-19.528-.53-.193-.906-.816-1.396-1.594z"/><path fill="#94DFE5" d="M405.763 496.643c-4.326.38-8.653.759-13.398 1.074-4.734-7.782-9.06-15.495-13.355-23.225-.71-1.278-1.278-2.633-1.874-4.327 9.496 5.861 18.954 12.097 28.593 19.028.132 2.947.083 5.198.034 7.45zm-29.607-27.58c.243-.095.56.087.958.537-.242.091-.564-.084-.958-.537z"/><path fill="#49A6B7" d="M406.212 496.757c-.4-2.366-.35-4.617-.282-7.3 3.53 1.027 7.694 1.83 8.139 7.414-2.911 0-5.16 0-7.857-.114z"/><path fill="#94DFE5" d="M384.545 419.41c.09.1-.238.13-.238.13s.147-.232.238-.13z"/></svg>