<?xml version="1.0" encoding="UTF-8"?>
<svg version="1.1" viewBox="0 0 1200 1200" width="1280" height="1280" xmlns="http://www.w3.org/2000/svg">
<path transform="translate(435,63)" d="m0 0h20l17 5 14 8 10 8 9 9 8 11 9 16 7 19 4 20v32l-2 12 11-11 14-10 14-7h11l5 3 3 6v10l-6 18-16 33-11 20-3 5h2v-2l8-7 4-4h2v-2l14-11 4-3h2l3-9 9-17 9-11 11-10 21-14 20-12 10-9 9-14 5-18 2-2 5 1 5 5 4 5 4 12 1 6v16l-4 18-6 15-3 13 2 11 7 17 1 5v14l-4 13-2 3 1 5 6 10 4 10 2 11 26 11 14 7v-9l5-42 7-48 5-25 6-23 8-21 12-25 8-13 11-14 14-14 15-10 13-6 10-3 15-1 14 3 13 7 7 6 8 10 8 14 5 11 7 21 5 23 3 23 1 15v40l-2 25-2 15 8-2h20l11 4 8 6 7 8 4 8 3 12v9l-3 12-7 14-8 10-10 11-14 11-15 11-36 24-14 10-5 8-12 23-5 10 13 28 11 27 13 38 4 14v4h2l1-11 4-12 7-13 9-10 2-2v-39l3-27 4-18 5-16 8-16 7-11 9-10 7-7 12-7 10-3h14l10 4 10 9 6 10 5 14 2 12v24l-4 28-6 28-9 31-10 28v32l-4 16-3 8 14-8 10-4 9-1 5 3 2 3-1 8-6 11-10 13-8 10-9 10 4-2 16-9 13-6h8l3 4-3 9-13 15-14 15-15 15 15-8 16-7 11-3 8 1 3 5-3 9-9 11-7 7-7 8-14 14 10-4 9-2 7 1 4 5-1 8-6 8-9 10-11 11-11 9-9 7 10-1h10l5 2 2 2v8l-11 21-11 13h-2l4 6v8l-3 12-9 17-9 14 29 2 4 4-1 5 2 2-1 6-3 2h-6v20l-5 70-4 47-2 5-8 5-15 5-9 2-9 1h-19l-21-3-14-5-8-6-2-6-8-80-1-6-15 6-22 6-13 2 4 11 1 5v16l-3 12-6 12-8 7-4 2h-114l-72-1-3-3 1-5 1-1h5v-8l2-8v-32l-22-1-44-4 9 19 6 15v8l-2 4-34 18-19 10-12 6-14 8-29 15-4 1-10-5-4-5-3-10 3-12 7-10 18-24 7-7 8-5 10-4v-2h-2v-2l-3-1-7-8-13-15-13-6-3-4-39-9-29-9-22-9-15-8-6-5-1-6-3-15-14 3-9 1-8 11-10 15-10 14-8 9 1 4 1 2v10l-4 11-11 19-8 11-6 3-7-1-23-12-23-13-27-14-18-10-16-9-2-8 1-8 4-7 5-4 8-3h23l19 1 14 3 8 4 8 6 3-16 13-48 2-6v-6l-2-4 2-11 9-30 16-49 14-38 17-41 12-26 4-9-1-8-5-10-8-10-15-12-24-16-10-9-6-8-2-5-214-1v-18l9-9 8-7 3-3 1-393h254l1-11 4-11 7-10 9-9 7-5 8-18 9-13 11-11 12-8 13-5zm-67 69-9 10-5 10-2 7v7h15l1-23 1-11zm184 138 1 2zm-139 223v3h6l-4-3z" fill="#FCADA7"/>
<path transform="translate(544,459)" d="m0 0h1l1 26 14 3 14 7 14 11 8 10 10 15 8 14 5 12 23-7 4 1 7 7 7 8 12 13 5 4 7 8 2 4 4 2 11 13 12 13 8 13 6 14 3 14-4 5-14 8-19 7-22 6-27 4-14 1h-27l-21-2h-7l-10 3-5 5-5 8-4 18-3 21-1 15v55l2 28 4 31 6 31 8 28 8 20 3 6v8l-7 8-16 8-13 4-14 2h-17l-9-2-8-4-3-4-39-9-29-9-22-9-15-8-6-5-1-6-3-15-14 3-9 1-8 11-10 15-10 14-8 9 1 4 1 2v10l-4 11-11 19-8 11-6 3-7-1-23-12-23-13-27-14-18-10-16-9-2-8 1-8 4-7 5-4 8-3h23l19 1 14 3 8 4 8 6 3-16 13-48 2-6v-6l-2-4 2-11 9-30 16-49 14-38 17-41 12-26 4-9-1-8-5-10-8-10-15-12-24-16-10-9-6-8-5-16-4-13-9-14-14-15-13-12-11-10-3-2v-2l-3-1-5-7-1-3v-10l4-6 6-5 13-4 9-1h15l16 3 13 5 15 8 11 8 13 12 10 8 31 9 16 8 9 6 3 3-2 9-10 35-6 26 12-20 17-25 13-17 11-13 9-10 17-17 14-11 14-9 16-8 16-5 11-1 3-12 4-6z" fill="#223157"/>
<path transform="translate(90,166)" d="m0 0h254v24l-1 8 9-1-1-22 1-1h15l2 6 4 16 2 5 11 6 12 10 7 10 5 12 2 7v23l-3 9-2 2-5-1-12-14-13-15-3-1-8 14-5 8 1 4 10 10 8 7 6 5-2 1-24-11-27-9-10-1-5 3-1 1v8l4 6 9 10 11 10 11 9 12 11 14 11 18 13-3 1-11-5-21-8-19-5-12-2h-8l-7 3-3 5 1 7 4 7 5 6 3 2v2l4 2 11 10 11 8v2l4 2 18 14 10 7-3 1-17-4-6-1h-11l-6 3-3 3-1 9 4 8 9 10 13 11 13 10 15 11 14 9 1 1v7l-1 1-17 2-8 3-2 3v10l8 14 12 16 1 3-4-1-14-8-14-5-24-7-10-8-8-8-10-8-13-8-15-7-15-4-7-1h-15l-14 2-9 4-6 5-2 4v10l4 7 5 6 11 9 10 10 8 7 7 7 8 10 6 10 4 13 2 10h-214v-18l9-9 8-7 3-3z" fill="#95DFE6"/>
<path transform="translate(435,63)" d="m0 0h20l17 5 14 8 10 8 9 9 8 11 9 16 7 19 4 20v32l-2 12 11-11 14-10 14-7h11l5 3 3 6v10l-6 18-16 33-11 20-3 5h2v-2l8-7 4-4h2v-2l14-11 4-3h2l3-9 9-17 9-11 11-10 21-14 20-12 10-9 9-14 5-18 2-2 5 1 5 5 4 5 4 12 1 6v16l-4 18-6 15-3 13 2 11 7 17 1 5v14l-4 13-2 3 1 5 6 10 4 10 1 5v19l-2 4h-8l-10-6-12-11-2-3-9 17-2 2h-4l-2-6-2-12-2-4h-17l-10 4-8 6-6 10h-2l-1-2-1-15-20 6-19 8-18 10-12 8-14 11-14 12-21 21-9 11-12 15-18 27-11 19-12 23-9 19-11 27-7 20h-3l-11-14-9-14-4-7v-10l5-5 11-3 12-1v-7l-21-14-18-14-11-9-12-11-6-9-1-9 3-5 5-4 3-1h11l20 4h3l-16-12-13-10v-2l-4-2-10-8-10-9-6-5-8-10-2-5 1-8 6-5 4-1h8l21 4 24 8 19 8-17-13-10-8-14-12-10-9-11-9-10-10-6-9v-8l4-4 8-1 15 4 19 7 23 10-20-18-5-5 1-4 8-14 5-8 4 2 10 11 9 11 6 7 5-1 3-9v-23l-5-15-6-10-5-6-12-9-9-5-4-11-3-15h-15l1 22-3 1h-7v-14l1-23 3-12 5-10 9-10 7-6 5-5 7-16 9-13 11-11 12-8 13-5zm-67 69-9 10-5 10-2 7v7h15l1-23 1-11zm184 138 1 2zm-139 223v3h6l-4-3z" fill="#155736"/>
<path transform="translate(1010,390)" d="m0 0h14l10 4 10 9 6 10 5 14 2 12v24l-4 28-6 28-9 31-10 28v32l-4 16-3 8 14-8 10-4 9-1 5 3 2 3-1 8-6 11-10 13-8 10-9 10 4-2 16-9 13-6h8l3 4-3 9-13 15-14 15-15 15 15-8 16-7 11-3 8 1 3 5-3 9-9 11-7 7-7 8-14 14 10-4 9-2 7 1 4 5-1 8-6 8-9 10-11 11-11 9-9 7 10-1h10l5 2 2 2v8l-11 21-11 13h-2l4 6v8l-3 12-9 17-9 14-1 1h-87l-15-28-5-15v-14l4-5-5-5-7-11-7-16-2-6 1-7 5-3 14 1 8 1-8-7-17-17-9-11-8-12-1-8 3-5 2-1h8l13 5 4 1-7-7-9-11-12-15-6-10-1-2v-8l4-3h7l15 6 14 8 11 8-6-7-11-13-13-17-7-10-3-6v-6l3-3 8 1 16 9 14 10-6-9-10-14-9-16-3-6v-10l5-4h8l16 8 9 6-3-11-1-7v-18l3-16 5-12 7-12 9-9v-39l3-27 4-18 5-16 8-16 7-11 9-10 7-7 12-7z" fill="#27784F"/>
<path transform="translate(638,308)" d="m0 0h17l3 5 3 18 5-2 8-16 2-2 10 11 10 7 4 2h8 4l2 4-1 8-5 5-8 5-3 6h-2l-2 5-7 8-7 6h-2l1 10v17l-4 5-14 8-11 3 8 8 1 60 10 8 4 4 8 7 14 14 5 6v2l3 1 4 5v2l3 1 11 15 1 1-1-13 17 3 21 6 15 6 11 6 9 7 7 7 4 7v18l-2 15-4 15-5 12-6 9-6 5-6 2h-9l-14-4-19-11-11-10-7-8-13-15-11-12-7-8-21-21-7-8-11-12-10 2-16 5-7-15-10-17-8-11-8-10-15-11-11-5-14-4-2-24-6 11-3 8-2 5-19 4-15 6-16 9-12 9-13 11-19 19-9 11-12 15-12 17-13 20-10 16-1-2 10-40 8-26-1-4-2-3 5 2 9-25 11-26 12-25 10-19 13-21 14-20 11-14 13-15 22-22 11-9 17-13 19-11 16-8 22-8 9-2 1 18 3-3 6-9 9-6z" fill="#FCADA7"/>
<path transform="translate(622,568)" d="m0 0h8l21 7 21 11 16 11 8 7 7 8 10 11 8 13 6 14 3 14-4 5-14 8-19 7-22 6-27 4-14 1h-27l-21-2h-7l-10 3-5 5-5 8-4 18-3 21-1 15v55l2 28 4 31 6 31 8 28 8 20 3 6v8l-7 8-16 8-13 4-14 2h-17l-9-2-8-4-4-8-10-26-10-31-10-43-5-27-4-34-2-28v-33l1-11 4-16 12-22 15-25 17-29 9-14 12-13 9-10 8-7 14-12 13-9 23-11 18-6 8-2z" fill="#0C162F"/>
<path transform="translate(873,79)" d="m0 0 14 1 11 4 10 6 6 5 8 10 8 14 5 11 7 21 5 23 3 23 1 15v40l-2 25-3 16-18 8-11 7-13 11-11 11-9 11-8 11-9 13-11 19-10 19-6 13-5-4-10-13-10-11-7-8-14-14-11-9-14-11-18-12v-10l5-42 7-48 5-25 6-23 8-21 12-25 8-13 11-14 14-14 15-10 13-6 10-3z" fill="#4E865B"/>
<path transform="translate(399,120)" d="m0 0 16 1 13 4 10 6 3 3 1 8 2 58 2 37v16l-4-4-7-8-4-2h-6l-2 3v8l5 16 14 29 10 19 4 31v4l-4 1 2 9 5 10 6 45v9l-12 18-11 19-12 23-9 19-11 27-7 20h-3l-11-14-9-14-4-7v-10l5-5 11-3 12-1v-7l-21-14-18-14-11-9-12-11-6-9-1-9 3-5 5-4 3-1h11l20 4h3l-16-12-13-10v-2l-4-2-10-8-10-9-6-5-8-10-2-5 1-8 6-5 4-1h8l21 4 24 8 19 8-17-13-10-8-14-12-10-9-11-9-10-10-6-9v-8l4-4 8-1 15 4 19 7 23 10-20-18-5-5 1-4 8-14 5-8 4 2 10 11 9 11 6 7 5-1 3-9v-23l-5-15-6-10-5-6-12-9-9-5-4-11-3-15h-16v-11l1 2h15v-23l2-12 11-6 12-4zm14 373v3h6l-4-3z" fill="#27784F"/>
<path transform="translate(969,532)" d="m0 0 4 1 4 32 4 41 3 45 1 24v81l-2 43-3 42-5 49-3 23h-52l-15-28-5-15v-14l4-5-5-5-7-11-7-16-2-6 1-7 5-3 14 1 8 1-8-7-17-17-9-11-8-12-1-8 3-5 2-1h8l13 5 4 1-7-7-9-11-12-15-6-10-1-2v-8l4-3h7l15 6 14 8 11 8-6-7-11-13-13-17-7-10-3-6v-6l3-3 8 1 16 9 14 10-6-9-10-14-9-16-3-6v-10l5-4h8l16 8 9 6-3-11-1-7v-18l3-16 5-12 7-12 12-12h3l4-4 9-4z" fill="#155736"/>
<path transform="translate(202,174)" d="m0 0h142v16l-1 8 9-1-1-22 1-1h15l2 6 4 16 2 5 11 6 12 10 7 10 5 12 2 7v23l-3 9-2 2-5-1-12-14-13-15-3-1-8 14-5 8 1 4 10 10 8 7 6 5-2 1-24-11-27-9-10-1-5 3-1 1v8l4 6 9 10 11 10 11 9 12 11 14 11 18 13-3 1-11-5-21-8-19-5-12-2h-8l-7 3-3 5 1 7 4 7 5 6 3 2v2l4 2 11 10 11 8v2l4 2 18 14 10 7-3 1-17-4-6-1h-11l-4 1-6-11-15-26-13-22-17-29-13-22-17-29-16-27-14-24-17-29-12-20z" fill="#94DFE6"/>
<path transform="translate(899,913)" d="m0 0h128l10 1 4 4-1 5 2 2-1 6-3 2h-6v20l-5 70-4 47-2 5-8 5-15 5-9 2-9 1h-19l-21-3-14-5-8-6-2-6-8-80-3-40v-14l-11-1-1-7 3-1v-2h-2l-1-6 3-3z" fill="#DD2F34"/>
<path transform="translate(165,174)" d="m0 0h37l6 9 12 21 13 22 17 29 16 27 14 24 17 29 13 22 17 29 15 25-1 4-4 4-1 9 4 8 9 10 13 11 13 10 15 11 14 9 1 1v7l-1 1-17 2-8 3-2 3v10l8 14 12 16 1 3-4-1-14-8-14-5-24-7-10-8-8-8-13-28-17-35-13-28-20-41-11-23-16-34-18-37-13-28-20-41-13-28-5-10z" fill="#BEEBF0"/>
<path transform="translate(688,125)" d="m0 0 5 1 5 5 4 5 4 12 1 6v16l-4 18-6 15-3 13 2 11 7 17 1 5v14l-4 13-2 3 1 5 6 10 4 10 1 5v19l-2 4h-8l-10-6-12-11-2-3-9 17-2 2h-4l-2-6-2-12-2-4h-17l-10 4-8 6-6 10h-2l-1-2-1-15-20 6-19 8-18 10-12 8-5 3 2-9 7-19 8-14 10-13 10-11 8-11 3-7 3-16 3-10 8-16 6-10 11-12 13-10 19-12 15-9 10-9 9-14 5-18z" fill="#4E865B"/>
<path transform="translate(115,174)" d="m0 0h15l3 7 78 312 16 63v3h41l9 14 4 13 2 10h-214v-18l9-9 8-7 3-3h104l-3-12-27-133-25-122-23-113z" fill="#BFECF1"/>
<path transform="translate(249,481)" d="m0 0h15l16 3 13 5 15 8 11 8 13 12 10 8 31 9 16 8 9 6 3 3-2 9-10 35-7 29-8 15-12 22-6 12-2-3-4-10-9-12-12-10-28-19-10-9-6-8-5-16-4-13-9-14-14-15-13-12-11-10-3-2v-2l-3-1-5-7-1-3v-10l4-6 6-5 13-4z" fill="#4E865B"/>
<path transform="translate(946,290)" d="m0 0 1 2 8-2h20l11 4 8 6 7 8 4 8 3 12v9l-3 12-7 14-8 10-10 11-14 11-15 11-36 24-14 10-5 8-12 23-5 8h-2l-11-21-13-21-11-16-4-4 9-18 11-21 12-19 7-10 11-14 12-13 8-8 13-10 15-8 10-3z" fill="#9FC0A5"/>
<path transform="translate(609,471)" d="m0 0h12l9 2 15 8 11 8 11 7 5 5 8 7 14 14 5 6v2l3 1 4 5v2l3 1 11 15 1 1-1-13 17 3 21 6 15 6 11 6 9 7 7 7 4 7v18l-2 15-4 15-5 12-6 9-6 5-6 2h-9l-14-4-19-11-11-10-7-8-13-15-11-12-7-8-21-21-7-8-11-12-7-8-11-12-9-10-12-13-8-10-6-12v-6l5 1 11 7 11 9 9 8 2 1-3-5-9-10-11-9-8-5v-2h3v2l9 3 11 6 11 9 4 2-3-5-6-7-13-8-10-3 1-2z" fill="#FDD3C5"/>
<path transform="translate(696,398)" d="m0 0 18 2 14 7 10 9 7 7 7 8 7 10 6 11 10 22 3 5 5 16 3 8 5 17 4 16 5 29 1 4v9l-14-12-14-8-18-7-18-5-15-3-2-1 2 15-4-4-8-11-8-9-7-8-9-10-12-12-6-4-5-5-6-5-1-60-9-9 13-3 12-7h2l2-4 11-6z" fill="#DD2F34"/>
<path transform="translate(1010,390)" d="m0 0h14l10 4 10 9 6 10 5 14 2 12v24l-4 28-6 28-9 31-10 28-1 5h-1l-2-11-8-16-7-9-7-6-12-6-8-2h-13l-10 3-6 3-2 3-5 1-1-13v-25l3-27 4-18 5-16 8-16 7-11 9-10 7-7 12-7z" fill="#386B66"/>
<path transform="translate(753,432)" d="m0 0 5 4 9 11 8 11 9 15 12 25 8 22 8 30 5 27 3 27 1 16v34l-2 26-2 6-5 4-19 8-23 7-26 6-25 4-34 3h-43l-32-3-27-5-21-6-3-3 5-5 6-3 5-1 15 1 13 1h27l23-2 22-4 24-7 15-6 12-7 3-5-4-16-8-16v-3l12 13 9 6 14 8 14 4h9l8-3 7-8 6-13 4-13 2-10 1-10v-18l-3-6v-9l-3-15-3-18-5-19-6-21-4-10-4-11-8-16-5-11-8-13z" fill="#DD8B82"/>
<path transform="translate(283,886)" d="m0 0 12 15 9 8 14 8 15 5 5 1 15 1-7 11-11 16-10 14-8 9 1 4 1 2v10l-4 11-11 19-8 11-6 3-7-1-23-12-23-13-27-14-18-10-16-9-2-8 1-8 4-7 5-4 8-3h23l19 1 14 3 8 4 8 6 3-16 13-48z" fill="#233457"/>
<path transform="translate(450,738)" d="m0 0h1l-1 18v33l2 28 4 34 7 36 8 34 12 36 8 21 1 4-28-6-29-8-25-9-21-10-9-7-1-6-3-16 17-7 3-5 11-44 11-38 13-40 11-29z" fill="#FCADA7"/>
<path transform="translate(662,992)" d="m0 0 175 1 8 4 5 4 5 10v19l-2 6-3 7-4 5-7 3h-86l-94-1v-7l2-8v-42z" fill="#E1E9F4"/>
<path transform="translate(398,112)" d="m0 0h15l16 4 11 5v2l5 2 11 11 9 16 3 13 2 24 1 17 1 2 8-12 6-5h7l3 4v13l-3 10-5 10-8 10h-2v2l-5 4 2 66 2 51 1 6 7-15 5-10 5-6 5-1 4 4-1 8-3 10-12 30-5 9-1 4-13 17-4 4-7-52-6-12v-7l4-1-5-35-21-41-6-15-2-8v-8l3-4h6l6 4 8 9v-14l-3-61-1-34-1-8-8-6-9-4-8-2-16-1-14 3-12 6-6 4-7 8-5 10-3 12v13l1 20-3 1h-7v-14l1-23 3-12 5-10 9-10 7-6 8-5 15-5z" fill="#2F3536"/>
<path transform="translate(352,174)" d="m0 0h15l2 6 4 16 2 5 11 6 12 10 7 10 5 12 2 7v23l-3 9-2 2-5-1-12-14-13-15-3-1-8 14-6 9-1 4h-2v3l-3 2-6-1-4-4v-2h-2v-3h-2v-3h-2v-3h-2v-3h-2v-3h-2v-3l-3 3h-2v2l-7 5-8 8h-3l-1 3-4 2-3 3h-6l-2-5v-29l3-12 5-10h2l2-5 2-3h2l2-4 8-7 16-8 3-1 14-1-1-22z" fill="#EBB662"/>
<path transform="translate(633,380)" d="m0 0 13 3h16l10-3h3l-2 5-6 5-12 25-2 5-4 1 8 8 1 60 1 2-4-2-15-10-13-6-6-1h-12l-3 1 11 4 12 8 7 8 1 4-4-1-11-9-20-10v-2h-3l3 3 10 7 12 11 6 7v3l-4-2-10-9-15-11-9-4 2 9 7 12 11 12 12 13 11 12 9 10 1 2-26 8-7-15-10-17-8-11-8-10-1-1v-33l1-15 5-1 4-2 21-9 29-12 8-3-5-6-9 3-30 13-15 6-4-1-13-13-8-7-8-8-4-2 6-2 9 9 5-2 9-8 15-8 13-3 10 1 5 2 2-16z" fill="#CDB39D"/>
<path transform="translate(217,500)" d="m0 0 11 1 17 5 18 8 12 8 10 9 7 8 7 11 10 20 8 10 12 9 21 12 29 14 4 3-2 8-8 14-8 16-9 17-2-3-4-10-9-12-12-10-28-19-10-9-6-8-5-16-4-13-9-14-14-15-13-12-11-10-3-2v-2l-3-1-5-7-1-3z" fill="#689F3D"/>
<path transform="translate(578,986)" d="m0 0 6 1 8 7 6 10 9 20 3 8v8l-2 4-34 18-19 10-12 6-14 8-29 15-4 1-10-5-4-5-3-10 3-12 7-10 18-24 7-7 8-5 11-4 15-2 12-6 6-7 6-16 2-2z" fill="#243557"/>
<path transform="translate(669,921)" d="m0 0h35l127 1 10 3 4 5 2 7-1 9-3 6-5 4-6 1h-126l-39-1 1-9z" fill="#E0E7F1"/>
<path transform="translate(638,308)" d="m0 0h17l3 5 3 18 5-2 8-16 2-2 10 11 10 7 4 2h8 4l2 4-1 8-5 5-8 5-3 6h-2l-2 5-7 8-7 6h-2l1 10v17l-4 5-14 8-7 1 2-6 11-23 7-6 2-4-13 4h-18l-12-4-8-6-6-7-7-14-2-13-4-2-3-5v-9l6-5h2l2 10 3-3 6-9 9-6z" fill="#FCD2C4"/>
<path transform="translate(637,963)" d="m0 0 98 1 65 1 9 3 3 4-1 6-4 4 33 1 10 5 5 5 5 10 2 9v16l-3 12-6 12-8 7-4 2h-114l-72-1-3-3 1-5 6-2h180l7-3 5-7 2-9 1-1v-19l-4-8v-2l-4-2-4-3-5-2-181-1-4-3v-5l1-1-16-1-1-2 165-1 6-3 1-5-5-3-3-1-42-1-121-1z" fill="#DDA342"/>
<path transform="translate(90,166)" d="m0 0h254v8h-142l-1-1h-37v1h-33l-1-1-16-1v2h-16v385h-8z" fill="#49A6B7"/>
<path transform="translate(283,886)" d="m0 0 12 15 9 8 14 8 15 5 5 1 15 1-7 11-11 16-10 14-9 11h-9l-9 2h-11l-12-6-8-8-3-4 2-13 12-45z" fill="#E08B5B"/>
<path transform="translate(441,135)" d="m0 0 3 1 9 14 4 13 2 10 2 90 2 46 1 63 1 25v17h-1l-6-45-6-12v-7l4-1-5-35-21-41-6-15-2-8v-8l3-4h6l6 4 8 9v-14l-3-61z" fill="#354A3E"/>
<path transform="translate(652,271)" d="m0 0h9l11 4 4-1h7l8 3 8 7 6 10 4 10 1 5v19l-2 4h-8l-10-6-12-11-2-3-9 17-2 2h-4l-2-6-2-12-2-4h-17l-10 4-8 6-6 10h-2l-1-2-1-11 2-10 5-10 7-9 8-7 10-6z" fill="#2A3341"/>
<path transform="translate(277,576)" d="m0 0 2 2 4 15v3h-214v-18h208z" fill="#C9C6C9"/>
<path transform="translate(89,559)" d="m0 0h179l9 14v5h-207l6-7 12-11z" fill="#DDE2E2"/>
<path transform="translate(557,415)" d="m0 0 5 1 13 13 8 7 8 8 5-1 20-8 30-13 4 2 4 5-13 6-20 8-21 9-8 3v1h-6v15l-1 33-8-6-14-8-17-5-2-27 1-17v-18l5-4 3-1 1-2z" fill="#CCB39D"/>
<path transform="translate(435,63)" d="m0 0h6v59l-10-4-13-4-5-1h-15l-10 2-15 5 3-10 9-16 11-12 8-7 11-6 10-4z" fill="#27784F"/>
<path transform="translate(638,967)" d="m0 0h162l7 3 2 2-1 5-4 3h-168l1-2z" fill="#DFE6EE"/>
<path transform="translate(662,915)" d="m0 0h121l50 1 11 4 6 7 2 5v12l-6 12-9 6-3 1h-100l-72-1-2-1 1-3 2-1h170l8-4 3-4 2-8-1-8-4-7-5-3-4-1-57-1-112-1-3-3z" fill="#C4282B"/>
<path transform="translate(441,135)" d="m0 0 3 1 9 14 4 13 2 10 2 90v16l-3-4-6-12-6-9-3-54-2-58z" fill="#155736"/>
<path transform="translate(614,400)" d="m0 0 10 1 6 3 9 12 5 4-12 6-17 7-19 8-5-1-17-17v-2l8-7 11-7 8-4z" fill="#DD2E33"/>
<path transform="translate(572,976)" d="m0 0 2 1 3 10-4 2-6 16-7 8-12 6-7 1h-9v-2h-2v-2l-3-1-7-8-13-15 4-1h17l14-2 16-5 13-7z" fill="#E08B5D"/>
<path transform="translate(557,415)" d="m0 0 5 1 13 13 8 7 8 8 5-1 20-8 30-13 4 2 4 5-13 6-20 8-21 9-9 3-6-1-9-7-10-9-15-14-2-1 1-4 3-1 1-2z" fill="#E1E9F3"/>
<path transform="translate(595,493)" d="m0 0 3 3 4 6 9 10 14 15 9 10 11 12-3 2-23 7-7-15-10-17-7-10z" fill="#CCB39C"/>
<path transform="translate(633,380)" d="m0 0 13 3h16l10-3h3l-2 5-6 5-12 25-2 5-10 1-5-5-9-12 1-10 2-13z" fill="#DD8B82"/>
<path transform="translate(486,191)" d="m0 0h7l3 4v13l-3 10-5 10-8 10h-2v2l-6 4-1-6-1-28h2l2-5 7-10z" fill="#374A3F"/>
<path transform="translate(642,550)" d="m0 0 4 1 7 7 7 8 12 13 5 4 7 8 2 4 4 2 1 2-4-2-15-10-21-11-21-7-8-2-3-9 6-3z" fill="#DD2E33"/>
<path transform="translate(497,335)" d="m0 0 5 1 2 3-1 8-3 10-12 30-5 9-1 4-4 4-1-19v-16l7-16 6-11 5-6z" fill="#374A3F"/>
<path transform="translate(637,963)" d="m0 0 98 1 65 1 9 3 3 4-1 6-6 4-3 1h-165l-1-2 165-1 6-3 1-5-5-3-3-1-42-1-121-1z" fill="#679F3D"/>
<path transform="translate(592,455)" d="m0 0h2l1 21 5 1 11 7 13 12 6 7v3l-4-2-10-9-15-11-9-4 2 9 1 2v24l-5-5-5-6v-33l1-15z" fill="#DC8B83"/>
<path transform="translate(718,461)" d="m0 0h10l6 4 3 5v9l-4 6-4 3-9 1-6-3-4-5-1-2v-8l4-7z" fill="#C4282B"/>
<path transform="translate(685,461)" d="m0 0h10l6 4 3 5v9l-4 6-5 3-2 1h-6l-8-5-3-5v-8l4-7z" fill="#C4282B"/>
<path transform="translate(719,494)" d="m0 0h8l6 3 4 6v9l-4 6-4 3-8 1-7-3-4-5-1-2v-8l4-7z" fill="#C4282B"/>
<path transform="translate(751,461)" d="m0 0h10l6 4 3 5v9l-4 6-5 3-7 1-8-4-3-4-1-3v-7l4-6z" fill="#C4282B"/>
<path transform="translate(752,494)" d="m0 0h9l6 4 3 5v9l-4 6-4 3-8 1-7-3-4-5-1-3v-7l4-6 3-3z" fill="#C4282B"/>
<path transform="translate(177,962)" d="m0 0 19 9v2l5 1 27 14 19 10 16 9 15 7v2l5 1 11 6v4l-3 1-52-28-35-18-22-12-6-3z" fill="#E1E8E3"/>
<path transform="translate(719,428)" d="m0 0h8l6 3 3 4 1 3v8l-4 6-4 3h-12l-6-5-2-5v-7l4-7z" fill="#C4282B"/>
<path transform="translate(686,428)" d="m0 0h8l6 3 4 7v8l-4 6-4 3h-12l-6-5-2-4v-8l4-7z" fill="#C4282B"/>
<path transform="translate(603,1031)" d="m0 0h3l-1 5-15 8-11 6-20 10-8 5-32 17-17 9-11 6-3-1 1-4 34-18 10-6 42-22 14-8z" fill="#E0E7E2"/>
<path transform="translate(752,527)" d="m0 0h9l6 4 3 5v9l-4 6-2 2-9-2-12-4-1-2v-8l4-6 3-3z" fill="#C4282B"/>
<path transform="translate(452,315)" d="m0 0 3 3 8 13 2 66v17h-1l-6-45-6-12v-7l4-1-3-21z" fill="#344B3E"/>
<path transform="translate(696,398)" d="m0 0 6 2 2 4v9l-4 6-7 4h-6l-8-5-3-6 1-5 6-5 8-3z" fill="#C4282B"/>
<path transform="translate(686,494)" d="m0 0h9l6 4 3 5v9l-4 6-4 3-5-1-15-15 3-7 4-3z" fill="#C4282B"/>
<path transform="translate(785,527)" d="m0 0h7l4 13 1 12-3 2h-10l-6-4-3-6v-7l4-6 3-3z" fill="#C4282B"/>
<path transform="translate(614,400)" d="m0 0 10 1 6 3 7 9-2 5-5 4-9 1-7-4-3-4-1-3v-7l2-4z" fill="#C4282B"/>
<path transform="translate(718,527)" d="m0 0h10l6 4 3 5v9l-9-1-8-2 2 15-4-4-8-11-1-5 4-7z" fill="#C4282B"/>
<path transform="translate(663,1012)" d="m0 0h137l47 1v1l-63 1h-121z" fill="#CAC7CA"/>
<path transform="translate(352,174)" d="m0 0h15l2 6 5 20-11-1-10-2-1-2-1-20z" fill="#95DFE5"/>
<path transform="translate(652,560)" d="m0 0 4 2 7 7 7 8 7 6 7 8 2 4 4 2 1 2-4-2-15-10-21-11-8-3 1-6 4-5z" fill="#C4282B"/>
<path transform="translate(712,400)" d="m0 0 9 3 11 7 3 3-1 5-8 5h-6l-8-5-3-6v-7z" fill="#C4282B"/>
<path transform="translate(748,430)" d="m0 0 4 1 7 10 5 8v5l-2 1h-11l-6-4-3-6v-7l4-6z" fill="#C4282B"/>
<path transform="translate(561,412)" d="m0 0 4 2 7 7h2l7 8 11 11 7-1 27-12 15-6 5-1 5 3 4 5-4-2-3-3-9 3-30 13-15 6-4-1-13-13-8-7-8-8-4-2z" fill="#D1AA9C"/>
<path transform="translate(376,469)" d="m0 0 4 2 18 12 7 5v7l-1 1-15 1 1-2-14-24z" fill="#95DFE6"/>
<path transform="translate(657,461)" d="m0 0 7 1 5 4 2 5v8l-4 6-5 3-5 1z" fill="#C4282B"/>
<path transform="translate(656,428)" d="m0 0 8 1 5 4 2 4v9l-4 6-4 3h-6z" fill="#C4282B"/>
<path transform="translate(599,404)" d="m0 0h6v9l-4 6-7 4h-6l-8-5 2-4 11-7z" fill="#C4282B"/>
<path transform="translate(663,1032)" d="m0 0h125v1l-113 3h-13z" fill="#CAC7CA"/>
<path transform="translate(896,443)" d="m0 0 1 3-13 25-5 8h-2l-4-8 2-5 8-10 12-12z" fill="#52895F"/>
<path transform="translate(781,496)" d="m0 0h3l7 24v1h-7l-6-4-3-6v-7l4-6z" fill="#C4282B"/>
<path transform="translate(452,315)" d="m0 0 3 3 8 13v24l-7-6-3-21z" fill="#155736"/>
<path transform="translate(359,272)" d="m0 0 13 13 8 7 6 5-2 1-24-11-11-4-1-3h6l3-1v-3h2z" fill="#95DEE3"/>
<path transform="translate(716,628)" d="m0 0 6 5 7 8 10 7-2 5-7 10h-1l-4-16-8-16z" fill="#C4282B"/>
<path transform="translate(598,476)" d="m0 0 12 7 14 13 6 7v3l-4-2-10-9-15-11-7-4v-2z" fill="#DD8B7E"/>
<path transform="translate(544,459)" d="m0 0h1l1 26h-13l3-12 4-6z" fill="#DB2F33"/>
<path transform="translate(603,474)" d="m0 0 10 1 12 7 12 12v3l-4-1-11-9-20-10z" fill="#DD8B7C"/>
<path transform="translate(669,941)" d="m0 0 1 4h93v1l-24 1-57 1-14 1z" fill="#CBC7C9"/>
<path transform="translate(587,428)" d="m0 0h8l6 3 3 4-1 3-7 3-5-1-8-8 1-3z" fill="#C4282B"/>
<path transform="translate(561,412)" d="m0 0 4 2 7 7h2l7 8 11 11v2l4 1-2 2-4-1-13-13-8-7-8-8-4-2z" fill="#CEB2A0"/>
<path transform="translate(785,560)" d="m0 0h9l5 3 2 6v9l-14-12-4-3v-2z" fill="#C4282B"/>
<path transform="translate(351,164)" d="m0 0 1 2h15v8l-16 1z" fill="#49A2B1"/>
<path transform="translate(458,367)" d="m0 0 6 5 1 25v17h-1z" fill="#155736"/>
<path transform="translate(656,337)" d="m0 0h3l2 15-1 2h-7l-1-1 1-8z" fill="#DD8B83"/>
<path transform="translate(620,560)" d="m0 0h9l6 4 2 3v3l-13-2-3-3z" fill="#C4282B"/>
<path transform="translate(670,578)" d="m0 0 6 4 9 10 1 3 4 2 1 2-4-2-15-10-4-3z" fill="#DA4444"/>
<path transform="translate(735,646)" d="m0 0 4 2-2 5-7 10h-1l-1-11 6-4z" fill="#DB2E33"/>
<path transform="translate(669,412)" d="m0 0 2 1-4 6-7 4h-6l-4-3 12-4z" fill="#C4282B"/>
<path transform="translate(645,420)" d="m0 0 5 2 5 6-4-2-3-3-9 3-4 2-4-1 3-3z" fill="#D0AEA2"/>
<path transform="translate(610,434)" d="m0 0 3 1-4 4-10 4-7-1 4-2z" fill="#D1AA9B"/>
<path transform="translate(674,326)" d="m0 0 5 1v6l-2 3-4-1-1-7z" fill="#2D3F48"/>
<path transform="translate(562,976)" d="m0 0h6v2l2 1-12 6-2-1 1-4 4-2z" fill="#253656"/>
<path transform="translate(636,320)" d="m0 0 3 1 1 6-2 3-4-1-1-1v-6z" fill="#243542"/>
<path transform="translate(404,487)" d="m0 0h2v2l5 2 3 2-1 3h-9z" fill="#4AA5B5"/>
<path transform="translate(537,472)" d="m0 0h2v7l-2 4 7 1v1h-11l3-12z" fill="#C52A2C"/>
<path transform="translate(707,337)" d="m0 0h3l-1 6-4 4-3-1 4-6z" fill="#DD8B81"/>
<path transform="translate(617,431)" d="m0 0 6 1-2 2-9 3 1-4z" fill="#CFB0A4"/>
<path transform="translate(393,360)" d="m0 0 7 1 5 3v2l-6-2-6-3z" fill="#508D6B"/>
</svg>
