<svg width="512" height="512" viewBox="0 0 512 512" fill="none" xmlns="http://www.w3.org/2000/svg">
<rect width="512" height="512" fill="white"/>
<path d="M256 426.524C234.67 426.524 217.218 421.68 203.16 411.507C199.766 409.084 199.282 404.724 201.705 401.333C204.129 397.942 208.492 397.458 211.886 399.88C223.52 408.116 237.579 411.991 256 411.991C273.936 411.991 288.48 408.116 299.629 399.88C303.023 397.458 307.386 398.427 309.81 401.333C312.233 404.724 311.264 409.084 308.355 411.507C294.782 421.68 277.33 426.524 256 426.524Z" fill="#067F38"/>
<path d="M310.295 427.493C307.871 424.102 303.508 423.618 300.114 426.04C287.026 435.244 270.543 436.698 256.485 436.698C236.125 436.698 223.036 433.307 212.371 425.556C208.977 423.133 204.614 424.102 202.191 427.009C199.767 430.4 200.736 434.76 203.645 437.182C211.401 442.511 219.158 445.902 227.399 447.84C228.853 462.373 241.457 474 256.485 474C271.513 474 284.117 462.373 285.571 447.84C293.974 445.91 301.892 442.283 308.84 437.182C311.749 435.244 312.718 430.4 310.295 427.493ZM256 459.467C249.698 459.467 244.85 455.591 242.427 450.262C246.79 450.747 251.637 450.747 256 450.747C260.363 450.747 264.726 450.747 269.574 450.262C267.635 455.591 262.302 459.467 256 459.467ZM253.576 264.72C252.607 264.72 252.122 264.72 251.637 264.236L222.551 255.031V285.551C241.457 298.147 266.665 298.147 285.571 285.551V255.031L256.485 264.236C255.031 264.72 254.546 264.72 253.576 264.72Z" fill="#067F38"/>
<path d="M256 112.12C189.102 112.12 141.109 161.533 141.109 229.84C141.109 269.564 159.046 295.24 174.558 317.524C186.678 334.964 196.858 349.982 196.858 367.907C196.858 391.644 236.124 401.818 256 401.818C275.876 401.818 315.142 391.644 315.142 367.907C315.142 349.498 325.807 334.48 337.442 317.524C352.954 295.24 370.891 269.564 370.891 229.84C370.891 162.018 322.899 112.12 256 112.12ZM186.678 174.129C202.19 154.751 219.642 143.609 241.942 139.733C245.82 139.249 249.698 141.671 250.183 145.547C250.668 149.422 248.244 153.298 244.366 153.782C225.459 157.173 211.401 165.893 197.827 182.849C197.171 183.773 196.297 184.522 195.283 185.029C194.268 185.536 193.144 185.785 192.01 185.755C190.556 185.755 188.617 185.271 187.647 184.302C184.739 181.88 184.254 177.035 186.678 174.129ZM333.079 240.013L328.716 241.467V264.72L335.987 271.987C335.987 280.222 329.685 286.52 321.444 286.52C313.203 286.52 306.901 280.222 306.901 271.987L314.173 264.72V246.311L299.63 250.671V289.427C299.63 291.849 298.175 294.271 296.236 295.724C284.051 305.215 269.025 310.334 253.576 310.258C238.064 310.258 223.036 304.929 210.432 295.24C208.492 293.787 207.523 291.364 207.523 288.458V250.187L173.589 239.529C170.68 239.044 168.741 236.622 168.741 233.231C168.741 229.84 170.68 227.418 174.074 226.449L251.637 202.227C253.051 201.742 254.586 201.742 256 202.227L333.564 226.449C336.472 227.418 338.896 230.324 338.896 233.231C338.896 236.138 336.472 239.044 333.079 240.013Z" fill="#067F38"/>
<path d="M200.251 233.231L253.576 249.702L306.901 233.231L253.576 216.76L200.251 233.231ZM265.695 47.6889C265.695 45.2667 264.726 42.8444 262.787 40.9067C259.393 37.0311 252.607 37.0311 249.213 40.9067C248.303 41.7885 247.578 42.8421 247.078 44.0063C246.579 45.1705 246.316 46.4223 246.305 47.6889C246.305 50.1111 247.274 52.5333 249.213 54.4711C250.668 55.9244 252.607 56.8933 254.546 57.3778C249.698 57.8622 246.305 62.2222 246.305 67.0667C246.305 71.9111 250.183 76.2711 255.03 76.7555C252.607 76.7555 250.668 77.7244 249.213 79.1778C248.303 80.0596 247.578 81.1132 247.078 82.2774C246.579 83.4416 246.316 84.6934 246.305 85.96C246.305 88.3822 247.274 90.8044 249.213 92.7422C251.152 94.68 253.576 95.6489 256 95.6489C258.424 95.6489 260.848 94.68 262.787 92.7422C264.726 90.8044 265.695 88.3822 265.695 85.96C265.695 83.5378 264.726 80.6311 262.787 79.1778C261.206 77.6916 259.139 76.8307 256.97 76.7555C259.381 76.5447 261.623 75.4273 263.243 73.6291C264.862 71.8308 265.739 69.4856 265.695 67.0667C265.695 62.2222 262.302 58.3467 257.454 57.3778C259.393 56.8933 261.333 55.9244 262.787 54.4711C264.726 52.5333 265.695 50.1111 265.695 47.6889ZM172.619 100.493C176.013 97.5867 176.982 92.2578 174.558 87.8978C171.65 84.0222 166.802 82.5689 162.439 84.5067C162.439 84.5067 162.924 84.5067 162.924 84.0222C164.863 82.0844 165.832 79.6622 165.832 77.24C165.832 74.8178 164.863 72.3955 162.924 70.4578C159.046 67.0667 152.744 67.0667 149.35 70.4578C148.44 71.3396 147.715 72.3932 147.215 73.5574C146.716 74.7216 146.453 75.9734 146.442 77.24C146.442 79.6622 147.411 82.0844 149.35 84.0222C151.289 85.96 153.713 86.9289 156.137 86.9289C157.591 86.9289 159.046 86.4444 160.015 85.96C156.622 88.8667 155.652 94.1955 158.561 98.5555C160.5 101.462 163.409 102.916 166.802 102.916C168.256 102.916 169.711 102.431 171.165 101.947L170.68 102.431C169.77 103.313 169.045 104.366 168.545 105.531C168.046 106.695 167.783 107.947 167.772 109.213C167.772 111.636 168.741 114.058 170.68 115.996C172.619 117.933 175.043 118.902 177.467 118.902C179.891 118.902 182.315 117.933 184.254 115.996C186.193 114.058 187.162 111.636 187.162 109.213C187.162 106.791 186.193 104.369 184.254 102.431C180.376 99.5244 176.013 99.04 172.619 100.493ZM88.269 166.378C90.6929 166.378 93.1167 165.409 95.0558 163.471L96.5102 162.018C95.5406 166.378 97.4797 171.222 101.843 173.16C103.297 173.644 104.266 174.129 105.721 174.129C109.114 174.129 112.023 172.191 113.962 169.284C113.477 170.253 113.477 171.222 113.477 172.191C113.477 174.613 114.447 177.52 116.386 178.973C118.325 180.911 120.749 181.88 123.173 181.88C125.596 181.88 128.02 180.911 129.959 178.973C131.899 177.036 132.868 174.613 132.868 172.191C132.868 169.769 131.899 167.347 129.959 165.409C126.081 161.533 119.779 161.533 116.386 165.409L114.931 166.862C115.901 162.502 113.962 157.658 109.599 155.72C105.236 153.782 99.9035 155.236 97.4797 159.111C97.4797 158.142 97.9645 157.658 97.9645 156.689C97.9645 154.267 96.9949 151.844 95.0558 149.907C91.6624 146.031 84.8756 146.031 81.4822 149.907C80.5723 150.788 79.8467 151.842 79.3474 153.006C78.8481 154.171 78.585 155.422 78.5736 156.689C78.5736 159.111 79.5431 161.533 81.4822 163.471C82.9365 165.409 85.3604 166.378 88.269 166.378ZM119.294 260.844C121.234 258.907 122.203 256.484 122.203 254.062C122.203 251.64 121.234 249.218 119.294 247.28C115.416 243.889 109.114 243.889 105.721 247.28C104.811 248.162 104.085 249.215 103.586 250.38C103.087 251.544 102.824 252.796 102.812 254.062C101.358 249.702 96.9949 246.796 92.1472 247.764C87.2995 248.733 83.9061 252.609 83.9061 257.453C83.3912 256 82.5638 254.677 81.4822 253.578C77.604 249.702 71.302 249.702 67.9086 253.578C65.9695 255.516 65 257.938 65 260.36C65 262.782 65.9695 265.204 67.9086 267.142C69.8477 269.08 72.2716 270.049 74.6954 270.049C77.1193 270.049 79.5431 269.08 81.4822 267.142C83.4213 265.204 84.3908 263.267 84.3908 260.36C85.8452 264.236 89.2386 266.658 93.6015 266.658H95.0558C99.9035 265.689 103.297 261.813 103.297 256.969C103.782 258.422 104.751 259.875 105.721 260.844C107.66 262.782 110.084 263.751 112.508 263.751C114.931 263.751 117.355 262.782 119.294 260.844ZM141.109 321.884C140.199 322.766 139.474 323.82 138.974 324.984C138.475 326.148 138.212 327.4 138.201 328.667C138.201 330.604 138.685 332.542 139.655 333.995C135.777 331.089 130.929 331.089 127.051 334.48C123.173 337.871 122.688 343.2 125.596 347.075C121.718 344.169 115.901 344.169 112.508 347.56C111.598 348.442 110.872 349.495 110.373 350.66C109.873 351.824 109.61 353.076 109.599 354.342C109.599 356.764 110.569 359.187 112.508 361.124C114.447 363.062 116.871 364.031 119.294 364.031C121.718 364.031 124.142 363.062 126.081 361.124C128.02 359.187 128.99 356.764 128.99 354.342C128.99 352.404 128.505 350.467 127.536 349.013C129.475 350.467 131.414 351.435 133.838 351.435C136.261 351.435 138.201 350.467 140.14 349.013C143.533 345.622 144.503 340.293 141.594 336.418C143.533 337.871 145.472 338.84 147.896 338.84C150.32 338.84 152.744 337.871 154.683 335.933C156.622 333.995 157.591 331.573 157.591 329.151C157.591 326.729 156.622 324.307 154.683 322.369C151.289 318.493 144.503 318.493 141.109 321.884ZM351.985 85.96C353.439 86.4444 354.409 86.9289 355.863 86.9289C358.287 86.9289 360.711 85.96 362.65 84.0222C364.589 82.0844 365.558 79.6622 365.558 77.24C365.558 74.8178 364.589 72.3955 362.65 70.4578C359.256 66.5822 352.47 66.5822 349.076 70.4578C348.166 71.3396 347.441 72.3932 346.941 73.5574C346.442 74.7216 346.179 75.9734 346.168 77.24C346.168 79.6622 347.137 82.0844 349.076 84.0222C349.076 84.0222 349.561 84.0222 349.561 84.5067C345.198 82.5689 340.35 84.0222 337.442 87.8978C334.533 91.7733 335.503 97.5867 339.381 100.493C335.987 99.04 331.14 99.5244 328.231 102.431C327.321 103.313 326.595 104.366 326.096 105.531C325.597 106.695 325.334 107.947 325.322 109.213C325.322 111.636 326.292 114.058 328.231 115.996C330.17 117.933 332.594 118.902 335.018 118.902C337.442 118.902 339.866 117.933 341.805 115.996C343.744 114.058 344.713 111.636 344.713 109.213C344.713 106.791 343.744 104.369 341.805 102.431L341.32 101.947C342.774 102.431 344.228 102.916 345.683 102.916C349.076 102.916 351.985 101.462 353.924 98.5555C356.348 94.1955 355.378 89.3511 351.985 85.96ZM388.827 181.396C391.251 181.396 393.675 180.427 395.614 178.489C397.553 176.551 398.523 174.129 398.523 171.707C398.523 170.738 398.523 169.769 398.038 168.8C399.977 171.707 402.886 173.644 406.279 173.644C407.734 173.644 408.703 173.644 410.157 172.676C414.52 170.738 416.944 165.893 415.49 161.533C415.975 162.018 416.459 162.502 416.459 162.987C418.398 164.924 420.822 165.893 423.246 165.893C425.67 165.893 428.094 164.924 430.033 162.987C431.972 161.049 432.942 158.627 432.942 156.204C432.942 153.782 431.972 151.36 430.033 149.422C426.155 146.031 419.853 146.031 416.459 149.422C415.549 150.304 414.824 151.358 414.325 152.522C413.825 153.686 413.562 154.938 413.551 156.204C413.551 157.173 413.551 158.142 414.036 158.627C411.612 154.751 406.279 152.813 401.916 154.751C397.553 156.689 395.129 161.533 396.584 165.893C396.099 165.409 395.614 164.924 395.614 164.44C391.736 160.564 385.434 160.564 382.041 164.44C381.131 165.322 380.405 166.375 379.906 167.54C379.406 168.704 379.143 169.956 379.132 171.222C379.132 173.644 380.102 176.067 382.041 178.004C383.98 180.427 386.404 181.396 388.827 181.396ZM444.091 253.093C440.698 249.218 433.911 249.218 430.518 253.093C429.548 254.062 428.579 255.515 428.094 256.969C428.094 252.124 424.701 248.249 419.853 247.28C415.005 246.311 410.642 249.218 409.188 254.062C409.188 251.64 408.218 249.218 406.279 247.28C402.401 243.889 396.099 243.889 392.706 247.28C391.796 248.162 391.07 249.215 390.571 250.38C390.071 251.544 389.808 252.796 389.797 254.062C389.797 256.484 390.767 258.907 392.706 260.844C394.645 262.782 397.069 263.751 399.492 263.751C401.916 263.751 404.34 262.782 406.279 260.844C407.249 259.875 408.218 258.422 408.703 256.969C408.703 261.813 412.097 265.689 416.944 266.658H418.399C422.762 266.658 426.155 264.236 427.609 260.36C427.609 262.782 428.579 265.204 430.518 267.142C432.457 269.08 434.881 270.049 437.305 270.049C439.729 270.049 442.152 269.08 444.091 267.142C446.031 265.204 447 262.782 447 260.36C447 257.453 446.031 255.031 444.091 253.093ZM386.404 346.591C389.312 342.715 388.827 337.387 384.949 333.995C381.556 330.604 376.223 330.604 372.345 333.511C373.315 332.058 373.8 330.12 373.8 328.182C373.8 325.76 372.83 323.338 370.891 321.4C367.497 318.009 360.711 318.009 357.317 321.4C356.407 322.282 355.682 323.335 355.182 324.5C354.683 325.664 354.42 326.916 354.409 328.182C354.409 330.604 355.378 333.027 357.317 334.964C359.256 336.902 361.68 337.871 364.104 337.871C366.528 337.871 368.467 336.902 370.406 335.449C369.205 337.409 368.695 339.714 368.959 341.997C369.223 344.28 370.244 346.409 371.86 348.044C373.8 349.498 376.223 350.467 378.162 350.467C380.102 350.467 382.525 349.498 384.464 348.044C383.477 349.644 382.972 351.494 383.01 353.373C383.01 355.795 383.98 358.218 385.919 360.155C387.858 362.093 390.282 363.062 392.706 363.062C395.129 363.062 397.553 362.093 399.492 360.155C401.432 358.218 402.401 355.795 402.401 353.373C402.401 350.951 401.432 348.529 399.492 346.591C396.099 343.684 390.282 343.684 386.404 346.591Z" fill="#067F38"/>
</svg>
