<svg xmlns="http://www.w3.org/2000/svg" viewBox="0 0 279.257 64.8"><path fill="#067f38" d="M17.497 11h10.076v43.08h-5.671V19.99l-5.37 34.21h-2.233l-.543-.12-.482.12H11.04l-5.31-34.21v34.09H0V11h10.136l3.68 24.375zm39.805.12-8.085 26.186V54.2h-5.853V37.246l-7.42-26.125h6.033l4.404 15.506 4.827-15.506h6.094z"/><g xmlns="http://www.w3.org/2000/svg" fill="#067f38"><path d="M105.368 57.744c-3.168 0-5.76-.72-7.848-2.232-.504-.36-.576-1.008-.216-1.512s1.008-.576 1.512-.216c1.728 1.224 3.816 1.8 6.552 1.8 2.664 0 4.824-.576 6.48-1.8.504-.36 1.152-.216 1.512.216.36.504.216 1.152-.216 1.512-2.016 1.512-4.608 2.232-7.776 2.232z"/><path d="M113.432 57.888c-.36-.504-1.008-.576-1.512-.216-1.944 1.368-4.392 1.584-6.48 1.584-3.024 0-4.968-.504-6.552-1.656-.504-.36-1.152-.216-1.512.216-.36.504-.216 1.152.216 1.512 1.152.792 2.304 1.296 3.528 1.584.216 2.16 2.088 3.888 4.32 3.888s4.104-1.728 4.32-3.888a9.392 9.392 0 0 0 3.456-1.584c.432-.288.576-1.008.216-1.44zm-8.064 4.752c-.936 0-1.656-.576-2.016-1.368.648.072 1.368.072 2.016.072.648 0 1.296 0 2.016-.072-.288.792-1.08 1.368-2.016 1.368zM105.008 33.696c-.144 0-.216 0-.288-.072l-4.32-1.368v4.536c2.808 1.872 6.552 1.872 9.36 0v-4.536l-4.32 1.368c-.216.072-.288.072-.432.072z"/><path d="M105.368 11.016c-9.936 0-17.064 7.344-17.064 17.496 0 5.904 2.664 9.72 4.968 13.032 1.8 2.592 3.312 4.824 3.312 7.488 0 3.528 5.832 5.04 8.784 5.04 2.952 0 8.784-1.512 8.784-5.04 0-2.736 1.584-4.968 3.312-7.488 2.304-3.312 4.968-7.128 4.968-13.032 0-10.08-7.128-17.496-17.064-17.496zm-10.296 9.216c2.304-2.88 4.896-4.536 8.208-5.112.576-.072 1.152.288 1.224.864.072.576-.288 1.152-.864 1.224-2.808.504-4.896 1.8-6.912 4.32a1.026 1.026 0 0 1-.864.432c-.216 0-.504-.072-.648-.216-.432-.36-.504-1.08-.144-1.512zm21.744 9.792-.648.216v3.456l1.08 1.08c0 1.224-.936 2.16-2.16 2.16s-2.16-.936-2.16-2.16l1.08-1.08V30.96l-2.16.648v5.76c0 .36-.216.72-.504.936a10.224 10.224 0 0 1-6.336 2.16c-2.304 0-4.536-.792-6.408-2.232-.288-.216-.432-.576-.432-1.008v-5.688l-5.04-1.584c-.432-.072-.72-.432-.72-.936s.288-.864.792-1.008l11.52-3.6a.999.999 0 0 1 .648 0l11.52 3.6c.432.144.792.576.792 1.008s-.36.864-.864 1.008z"/><path d="m97.088 29.016 7.92 2.448 7.92-2.448-7.92-2.448zM106.808 1.44c0-.36-.144-.72-.432-1.008-.504-.576-1.512-.576-2.016 0a1.422 1.422 0 0 0-.432 1.008c0 .36.144.72.432 1.008.216.216.504.36.792.432-.72.072-1.224.72-1.224 1.44s.576 1.368 1.296 1.44c-.36 0-.648.144-.864.36a1.422 1.422 0 0 0-.432 1.008c0 .36.144.72.432 1.008.288.288.648.432 1.008.432s.72-.144 1.008-.432c.288-.288.432-.648.432-1.008s-.144-.792-.432-1.008a1.328 1.328 0 0 0-.864-.36 1.42 1.42 0 0 0 1.296-1.44c0-.72-.504-1.296-1.224-1.44.288-.072.576-.216.792-.432.288-.288.432-.648.432-1.008zM92.984 9.288c.504-.432.648-1.224.288-1.872-.432-.576-1.152-.792-1.8-.504 0 0 .072 0 .072-.072.288-.288.432-.648.432-1.008s-.144-.72-.432-1.008c-.576-.504-1.512-.504-2.016 0a1.422 1.422 0 0 0-.432 1.008c0 .36.144.72.432 1.008.288.288.648.432 1.008.432.216 0 .432-.072.576-.144-.504.432-.648 1.224-.216 1.872.288.432.72.648 1.224.648.216 0 .432-.072.648-.144l-.072.072a1.422 1.422 0 0 0-.432 1.008c0 .36.144.72.432 1.008.288.288.648.432 1.008.432s.72-.144 1.008-.432c.288-.288.432-.648.432-1.008s-.144-.72-.432-1.008c-.576-.432-1.224-.504-1.728-.288zM80.456 19.08c.36 0 .72-.144 1.008-.432l.216-.216c-.144.648.144 1.368.792 1.656.216.072.36.144.576.144.504 0 .936-.288 1.224-.72-.072.144-.072.288-.072.432 0 .36.144.792.432 1.008.288.288.648.432 1.008.432s.72-.144 1.008-.432c.288-.288.432-.648.432-1.008s-.144-.72-.432-1.008c-.576-.576-1.512-.576-2.016 0l-.216.216c.144-.648-.144-1.368-.792-1.656-.648-.288-1.44-.072-1.8.504 0-.144.072-.216.072-.36 0-.36-.144-.72-.432-1.008-.504-.576-1.512-.576-2.016 0a1.422 1.422 0 0 0-.432 1.008c0 .36.144.72.432 1.008.216.288.576.432 1.008.432zM85.064 33.12c.288-.288.432-.648.432-1.008s-.144-.72-.432-1.008c-.576-.504-1.512-.504-2.016 0a1.422 1.422 0 0 0-.432 1.008c-.216-.648-.864-1.08-1.584-.936-.72.144-1.224.72-1.224 1.44a1.568 1.568 0 0 0-.36-.576c-.576-.576-1.512-.576-2.016 0-.288.288-.432.648-.432 1.008s.144.72.432 1.008c.288.288.648.432 1.008.432s.72-.144 1.008-.432c.288-.288.432-.576.432-1.008.216.576.72.936 1.368.936h.216c.72-.144 1.224-.72 1.224-1.44.072.216.216.432.36.576.288.288.648.432 1.008.432s.72-.144 1.008-.432zM88.304 42.192a1.422 1.422 0 0 0-.432 1.008c0 .288.072.576.216.792-.576-.432-1.296-.432-1.872.072-.576.504-.648 1.296-.216 1.872-.576-.432-1.44-.432-1.944.072a1.422 1.422 0 0 0-.432 1.008c0 .36.144.72.432 1.008.288.288.648.432 1.008.432s.72-.144 1.008-.432c.288-.288.432-.648.432-1.008 0-.288-.072-.576-.216-.792.288.216.576.36.936.36.36 0 .648-.144.936-.36.504-.504.648-1.296.216-1.872.288.216.576.36.936.36.36 0 .72-.144 1.008-.432.288-.288.432-.648.432-1.008s-.144-.72-.432-1.008c-.504-.576-1.512-.576-2.016-.072zM119.624 7.128c.216.072.36.144.576.144.36 0 .72-.144 1.008-.432.288-.288.432-.648.432-1.008s-.144-.72-.432-1.008c-.504-.576-1.512-.576-2.016 0a1.422 1.422 0 0 0-.432 1.008c0 .36.144.72.432 1.008 0 0 .072 0 .072.072-.648-.288-1.368-.072-1.8.504-.432.576-.288 1.44.288 1.872-.504-.216-1.224-.144-1.656.288a1.422 1.422 0 0 0-.432 1.008c0 .36.144.72.432 1.008.288.288.648.432 1.008.432s.72-.144 1.008-.432c.288-.288.432-.648.432-1.008s-.144-.72-.432-1.008l-.072-.072c.216.072.432.144.648.144.504 0 .936-.216 1.224-.648.36-.648.216-1.368-.288-1.872zM125.096 21.312c.36 0 .72-.144 1.008-.432.288-.288.432-.648.432-1.008 0-.144 0-.288-.072-.432.288.432.72.72 1.224.72.216 0 .36 0 .576-.144.648-.288 1.008-1.008.792-1.656.072.072.144.144.144.216.288.288.648.432 1.008.432s.72-.144 1.008-.432c.288-.288.432-.648.432-1.008s-.144-.72-.432-1.008c-.576-.504-1.512-.504-2.016 0a1.422 1.422 0 0 0-.432 1.008c0 .144 0 .288.072.36-.36-.576-1.152-.864-1.8-.576-.648.288-1.008 1.008-.792 1.656-.072-.072-.144-.144-.144-.216-.576-.576-1.512-.576-2.016 0a1.422 1.422 0 0 0-.432 1.008c0 .36.144.72.432 1.008.288.36.648.504 1.008.504zM133.304 31.968c-.504-.576-1.512-.576-2.016 0-.144.144-.288.36-.36.576 0-.72-.504-1.296-1.224-1.44-.72-.144-1.368.288-1.584 1.008 0-.36-.144-.72-.432-1.008-.576-.504-1.512-.504-2.016 0a1.422 1.422 0 0 0-.432 1.008c0 .36.144.72.432 1.008.288.288.648.432 1.008.432s.72-.144 1.008-.432c.144-.144.288-.36.36-.576 0 .72.504 1.296 1.224 1.44h.216c.648 0 1.152-.36 1.368-.936 0 .36.144.72.432 1.008.288.288.648.432 1.008.432s.72-.144 1.008-.432c.288-.288.432-.648.432-1.008 0-.432-.144-.792-.432-1.08zM124.736 45.864c.432-.576.36-1.368-.216-1.872-.504-.504-1.296-.504-1.872-.072.144-.216.216-.504.216-.792 0-.36-.144-.72-.432-1.008-.504-.504-1.512-.504-2.016 0a1.422 1.422 0 0 0-.432 1.008c0 .36.144.72.432 1.008.288.288.648.432 1.008.432s.648-.144.936-.36a1.528 1.528 0 0 0 .216 1.872c.288.216.648.36.936.36.288 0 .648-.144.936-.36a1.451 1.451 0 0 0-.216.792c0 .36.144.72.432 1.008.288.288.648.432 1.008.432s.72-.144 1.008-.432c.288-.288.432-.648.432-1.008s-.144-.72-.432-1.008c-.504-.432-1.368-.432-1.944 0z"/></g><path fill="#067f38" d="M176.977 11.996h5.628l-5.452 41.852h-5.803l-2.93-20.984-2.755 20.984h-5.803L154 11.996h5.627l3.048 21.571 2.814-21.57h5.627l3.048 21.57zm21.672 41.91c-4.396 0-7.913-3.575-7.913-7.912V19.675c0-4.337 3.517-7.854 7.913-7.854a7.855 7.855 0 0 1 7.855 7.854v26.319c0 4.337-3.517 7.913-7.855 7.913zm0-36.517a2.289 2.289 0 0 0-2.286 2.286v26.319c0 1.29.997 2.286 2.286 2.286 1.231 0 2.286-.997 2.286-2.286V19.675c0-1.23-1.055-2.286-2.286-2.286zm32.047 36.577h-5.979l-3.224-8.851h-1.29v8.85h-5.568V11.997h8.734a6.955 6.955 0 0 1 6.975 6.976v19.167c0 2.52-1.29 4.69-3.282 5.92zm-10.492-36.401v21.981h3.165c.762 0 1.407-.645 1.407-1.407V18.972c0-.762-.645-1.407-1.407-1.407h-3.165zm25.95 36.342h-7.326V12.114h7.327c4.982 0 8.968 4.044 8.968 9.027v23.74c0 2.402-.938 4.688-2.638 6.388s-3.927 2.638-6.33 2.638zm-1.758-36.166V48.28h1.759c.879 0 1.758-.352 2.403-.997s.996-1.465.996-2.403V21.14c0-1.875-1.524-3.4-3.4-3.4h-1.758zM271.285 54.2c-4.455 0-8.03-3.634-8.03-8.03v-6.39h5.685v6.39c0 1.29 1.055 2.344 2.345 2.344s2.286-1.055 2.286-2.344V40.6l-10.317-14.244V19.09c0-4.455 3.576-8.089 8.03-8.089 4.397 0 7.973 3.634 7.973 8.089v6.33h-5.686v-6.33c0-1.348-.997-2.345-2.286-2.345s-2.345.997-2.345 2.345v5.334l10.317 14.244v7.503c0 4.396-3.576 8.03-7.972 8.03z"/></svg>